<svg width="500" height="577" viewBox="0 0 500 577" fill="none" xmlns="http://www.w3.org/2000/svg">
<path d="M378.849 399.539C378.849 399.101 378.849 398.651 378.849 398.218C378.849 391.053 378.564 384.934 378.261 380.44C378.548 380.488 378.839 380.488 379.126 380.44C379.429 384.951 379.71 391.07 379.71 398.224C379.71 398.651 379.71 399.095 379.71 399.527C379.569 400.022 379.453 400.53 379.364 401.047C379.212 400.533 379.04 400.029 378.849 399.539Z" fill="#1A1A1A"/>
<path d="M370.927 452.732C371.129 452.688 371.33 452.632 371.527 452.565C371.563 452.92 371.635 453.269 371.739 453.607C368.977 462.247 365.181 470.428 360.455 477.927L359.42 477.609C364.273 469.957 368.146 461.584 370.927 452.732Z" fill="#1A1A1A"/>
<path d="M378.611 409.548C378.795 409.409 378.967 409.253 379.127 409.082C379.358 408.813 379.555 408.509 379.71 408.18C379.281 419.419 377.776 430.576 375.221 441.468C375.07 440.777 374.875 440.098 374.638 439.437C376.818 429.634 378.148 419.626 378.611 409.548Z" fill="#1A1A1A"/>
<path d="M407.07 436.837L407.246 436.713C407.069 437.257 407 437.838 407.044 438.415C407.069 438.671 407.119 438.923 407.193 439.168C402.476 449.315 396.774 458.859 390.19 467.63C389.367 468.21 388.715 469.047 388.318 470.037C384.233 475.182 379.772 479.942 374.98 484.268C374.628 484.066 374.281 483.871 373.913 483.675C388.456 470.743 399.174 454.057 407.07 436.837Z" fill="#1A1A1A"/>
<path d="M409.881 432.56C409.986 431.98 410.057 431.393 410.096 430.803C413.561 422.311 416.535 413.578 418.998 404.659C420.003 401.05 420.898 397.518 421.705 394.114C422.646 392.657 423.17 390.915 423.208 389.117C423.237 388.505 423.237 387.891 423.208 387.278C424.857 379.399 426.004 372.311 426.784 366.517C426.952 365.279 427.103 364.108 427.24 363.003C427.376 363.066 427.516 363.121 427.659 363.167C427.856 363.222 428.058 363.258 428.261 363.272C427.1 372.705 425.483 382.06 423.417 391.297C423.38 391.396 423.339 391.49 423.302 391.595C423.075 392.243 422.936 392.924 422.888 393.616C422.035 397.301 421.071 401.115 419.982 405.022C417.266 414.871 413.925 424.49 409.986 433.808C409.787 433.984 409.598 434.159 409.42 434.335C409.619 433.759 409.773 433.165 409.881 432.56Z" fill="#1A1A1A"/>
<path d="M427.64 362.722C426.049 361.998 424.94 359.921 424.361 357.018C423.735 353.857 423.74 349.698 424.534 345.283C425.327 340.867 426.735 337.022 428.398 334.375C430.061 331.728 431.957 330.257 433.813 330.542C435.669 330.827 437.103 333.012 437.835 336.247C438.568 339.481 438.624 343.743 437.835 348.261C437.047 352.779 435.517 356.698 433.727 359.362C432.13 361.747 430.31 363.11 428.642 362.996C428.445 362.982 428.249 362.947 428.057 362.893C427.916 362.845 427.776 362.788 427.64 362.722Z" fill="#A8DF8E"/>
<path d="M423.88 389.021C423.839 390.79 423.27 392.504 422.248 393.938C421.81 394.492 421.241 394.926 420.594 395.2C418.65 395.995 416.28 395.16 413.989 393.194C411.303 390.727 409.205 387.672 407.856 384.261C406.231 380.399 405.52 376.307 405.895 373.039C406.02 371.61 406.467 370.23 407.203 369.005C407.777 368.053 408.691 367.363 409.755 367.08C411.807 366.595 413.978 367.696 416.053 369.604C418.542 372.047 420.5 374.992 421.799 378.249C423.018 381.081 423.729 384.11 423.897 387.194C423.923 387.803 423.917 388.413 423.88 389.021Z" fill="#A8DF8E"/>
<path d="M423.019 391.605C423.192 391.152 423.393 390.716 423.593 390.228C423.723 389.941 423.859 389.631 424.005 389.381L424.227 388.976L424.439 388.534C424.726 387.938 425.051 387.431 425.36 386.817C425.512 386.513 425.691 386.281 425.853 385.953C426.016 385.625 426.2 385.357 426.395 385.047C427.258 383.603 428.19 382.21 429.186 380.873C430.382 379.215 431.698 377.666 433.121 376.241C433.484 375.883 433.847 375.549 434.205 375.227C434.562 374.905 434.958 374.589 435.337 374.303C436.055 373.752 436.81 373.264 437.597 372.843C438.874 372.111 440.292 371.727 441.732 371.722C442.259 371.712 442.781 371.824 443.266 372.048C443.751 372.273 444.189 372.607 444.55 373.027C445.213 373.912 445.593 375.012 445.634 376.157C445.701 377.531 445.579 378.908 445.271 380.241C445.101 381.033 444.891 381.813 444.642 382.578C444.512 382.99 444.366 383.401 444.209 383.813C444.052 384.224 443.867 384.683 443.667 385.124C442.788 387.164 441.697 389.084 440.415 390.848C438.913 392.913 437.118 394.699 435.099 396.136C434.557 396.476 434.064 396.792 433.56 397.078C433.057 397.357 432.537 397.598 432.004 397.799C431.05 398.198 430.054 398.462 429.04 398.586C428.807 398.622 428.585 398.652 428.362 398.664C428.14 398.676 427.913 398.664 427.701 398.664C427.295 398.652 426.89 398.614 426.487 398.55C425.801 398.453 425.136 398.219 424.526 397.859C424.044 397.614 423.618 397.255 423.278 396.806C422.939 396.357 422.695 395.831 422.564 395.265C422.479 394.849 422.448 394.421 422.472 393.995C422.521 393.29 422.665 392.597 422.9 391.939C422.938 391.801 422.981 391.706 423.019 391.605Z" fill="#A8DF8E"/>
<path d="M407.444 436.969C408.429 436.184 409.17 435.068 409.56 433.78C409.737 433.604 409.925 433.428 410.123 433.252C410.415 432.989 410.722 432.731 411.045 432.476C412.397 431.444 413.822 430.536 415.304 429.763C418.729 427.979 422.311 426.601 425.989 425.653C427.581 425.237 429.201 424.97 430.832 424.854C433.782 424.678 436.164 425.265 437.196 427.109C438.228 428.953 437.597 431.713 435.455 434.614C434.216 436.242 432.777 437.662 431.181 438.83C427.348 441.659 422.946 443.359 418.379 443.775C416.488 443.946 414.585 443.809 412.729 443.37C409.846 442.653 407.944 441.185 407.407 439.388C407.335 439.146 407.286 438.896 407.261 438.643C407.215 438.076 407.277 437.506 407.444 436.969Z" fill="#A8DF8E"/>
<path d="M389.756 467.602C390.718 466.88 391.761 466.304 392.857 465.889C394.409 465.292 396.003 464.839 397.621 464.535C399.483 464.162 401.364 463.914 403.253 463.793C405.141 463.645 407.036 463.621 408.927 463.723C410.565 463.795 412.195 464.017 413.801 464.388C416.698 465.1 418.868 466.377 419.433 468.461C419.998 470.545 418.737 473.034 415.981 475.206C414.403 476.411 412.679 477.354 410.862 478.008C406.488 479.602 401.83 479.936 397.312 478.979C395.432 478.594 393.61 477.904 391.905 476.931C388.93 475.165 387.408 472.852 387.722 470.733C387.764 470.48 387.827 470.231 387.91 469.991C388.303 469.007 388.945 468.176 389.756 467.602Z" fill="#A8DF8E"/>
<path d="M408.743 434.313C408.368 435.627 407.656 436.767 406.708 437.568L406.542 437.694C406.238 437.909 405.908 438.068 405.565 438.168C403.77 438.689 401.84 437.604 400.105 435.608C396.246 430.683 394.131 424.162 394.205 417.412C394.355 414.535 395.167 412.179 396.792 411.117C398.416 410.056 400.547 410.518 402.662 412.382C404.778 414.247 406.828 417.4 408.132 421.417C409.114 424.353 409.544 427.511 409.39 430.668C409.353 431.272 409.285 431.873 409.184 432.466C409.082 433.096 408.934 433.714 408.743 434.313Z" fill="#A8DF8E"/>
<path d="M378.504 380.373C377.077 380.203 375.585 379.374 374.174 378.068C371.912 375.734 370.146 372.961 368.983 369.917C367.82 366.872 367.284 363.621 367.409 360.362C367.66 357.617 368.684 355.477 370.514 354.642C372.344 353.808 374.631 354.461 376.832 356.289C379.032 358.117 381.135 361.042 382.529 364.681C383.924 368.32 384.327 371.937 383.891 374.758C383.455 377.58 382.192 379.621 380.285 380.247C379.71 380.428 379.102 380.482 378.504 380.406V380.373Z" fill="#A8DF8E"/>
<path d="M378.369 409.63C377.032 410.723 375.06 410.812 372.821 410.097C366.95 407.827 362.017 403.067 358.991 396.753C357.841 394.023 357.584 391.436 358.633 389.664C359.682 387.892 361.861 387.218 364.559 387.75C367.257 388.281 370.465 390 373.39 392.824C375.527 394.842 377.302 397.333 378.616 400.155C378.839 400.649 379.041 401.156 379.221 401.673C379.181 401.856 379.135 402.04 379.105 402.223C378.726 404.011 378.942 405.901 379.71 407.51C379.636 407.762 379.545 408.007 379.438 408.242C379.286 408.585 379.094 408.901 378.868 409.181C378.712 409.347 378.545 409.497 378.369 409.63Z" fill="#A8DF8E"/>
<path d="M379.18 402.065C379.212 401.883 379.26 401.701 379.303 401.518C379.414 400.998 379.558 400.487 379.733 399.989C380.635 397.542 382.033 395.351 383.823 393.583C386.386 391.001 389.374 389.518 391.927 389.218C394.48 388.918 396.597 389.742 397.699 391.53C398.801 393.318 398.774 395.718 397.962 398.118C396.967 400.778 395.45 403.165 393.518 405.112C391.586 407.059 389.288 408.517 386.784 409.383C384.532 410.042 382.356 409.901 380.808 408.548C380.418 408.207 380.086 407.795 379.825 407.33C379.007 405.729 378.776 403.846 379.18 402.065Z" fill="#A8DF8E"/>
<path d="M372.822 447.96C372.044 449.259 371.678 450.788 371.777 452.324C371.577 452.389 371.375 452.443 371.17 452.485C369.607 452.731 368.012 452.402 366.649 451.552C364.487 450.193 362.688 448.268 361.423 445.962C360.157 443.656 359.468 441.044 359.42 438.375C359.478 436.01 360.262 433.933 361.856 432.822C363.45 431.712 365.557 431.673 367.684 432.694C370.115 433.973 372.121 436.009 373.434 438.531C373.838 439.269 374.187 440.039 374.479 440.835C374.719 441.482 374.917 442.147 375.07 442.823C375.214 443.455 375.312 444.097 375.362 444.744C374.358 445.663 373.5 446.749 372.822 447.96Z" fill="#A8DF8E"/>
<path d="M372.836 447.722C373.588 446.437 374.54 445.286 375.655 444.317C377.016 443.113 378.545 442.127 380.193 441.391C383.617 439.881 387.042 439.559 389.713 440.185C392.384 440.811 394.234 442.345 394.764 444.422C395.295 446.499 394.49 448.729 392.938 450.707C391.098 452.851 388.821 454.555 386.267 455.697C383.713 456.838 380.946 457.39 378.161 457.313C375.69 457.132 373.555 456.225 372.453 454.387C372.26 454.067 372.107 453.723 371.997 453.363C371.881 453.022 371.803 452.669 371.763 452.31C371.637 450.703 372.013 449.096 372.836 447.722Z" fill="#A8DF8E"/>
<path d="M396.407 129.825C397.697 128.106 398.586 126.079 398.999 123.914C399.247 122.413 399.672 120.951 400.264 119.565C400.598 118.717 401.096 117.957 401.727 117.334C401.882 117.172 402.082 117.068 402.297 117.039C402.315 117.037 402.332 117.039 402.349 117.045C402.366 117.051 402.382 117.06 402.396 117.072C402.469 117.132 402.528 117.211 402.567 117.301C402.784 117.838 402.882 118.422 402.852 119.007C402.852 119.247 402.852 119.509 402.816 119.788C402.728 121 402.583 122.206 402.38 123.401C402.219 124.31 402.069 124.957 401.96 125.47C401.887 125.78 401.845 126.098 401.836 126.418C401.83 126.668 401.884 126.916 401.991 127.138C402.102 127.371 402.273 127.565 402.484 127.695C402.601 127.772 402.724 127.838 402.852 127.89C402.977 127.938 403.108 127.963 403.241 127.963C403.473 127.959 403.7 127.89 403.899 127.762C404.077 127.655 404.24 127.524 404.387 127.372C404.727 127.009 405.032 126.611 405.299 126.184C406.071 124.948 406.74 123.642 407.301 122.281C408.92 118.454 410.074 114.419 410.733 110.275C410.918 108.621 411.503 107.048 412.429 105.713C413.009 104.916 413.804 104.332 414.705 104.04C415.178 103.899 415.666 103.827 416.157 103.828C416.457 103.828 416.757 103.852 417.054 103.901C417.09 104.185 417.132 104.559 417.179 105.016C417.324 106.53 417.395 108.05 417.391 109.572C417.403 113.794 416.866 117.996 415.794 122.057C414.447 127.239 411.999 132.013 408.644 136.004C404.884 140.42 401.903 143.577 399.59 145.835C399.398 144.921 399.15 144 398.87 143.075C398.147 140.815 397.28 138.611 396.277 136.478C395.546 134.9 394.82 133.478 394.203 132.329C395.002 131.563 395.739 130.725 396.407 129.825Z" fill="white"/>
<path d="M397.964 147.724C400.466 145.319 403.678 141.886 407.735 137.124C411.339 132.835 413.971 127.709 415.425 122.147C416.585 117.754 417.165 113.209 417.149 108.643C417.153 107.002 417.076 105.363 416.919 103.731C416.869 103.214 416.824 102.811 416.785 102.528C416.464 102.476 416.141 102.45 415.817 102.45C415.287 102.449 414.76 102.526 414.25 102.678C413.277 102.993 412.419 103.623 411.793 104.482C410.799 105.925 410.173 107.623 409.98 109.406C409.267 113.874 408.022 118.225 406.275 122.351C405.67 123.819 404.947 125.227 404.115 126.56C403.826 127.021 403.496 127.45 403.13 127.841C402.972 128.004 402.795 128.146 402.604 128.261C402.389 128.4 402.143 128.474 401.893 128.478C401.75 128.478 401.608 128.451 401.473 128.4C401.335 128.343 401.202 128.273 401.076 128.189C400.848 128.049 400.663 127.84 400.544 127.588C400.428 127.349 400.37 127.082 400.376 126.812C400.387 126.468 400.432 126.125 400.51 125.79C400.628 125.237 400.79 124.54 400.964 123.56C401.183 122.271 401.339 120.97 401.434 119.664C401.462 119.363 401.473 119.062 401.473 118.822C401.506 118.191 401.4 117.561 401.165 116.982C401.123 116.885 401.06 116.8 400.981 116.736C400.966 116.722 400.949 116.712 400.931 116.706C400.913 116.7 400.893 116.698 400.874 116.7C400.642 116.731 400.426 116.843 400.259 117.018C399.578 117.689 399.04 118.509 398.68 119.423C398.041 120.918 397.583 122.494 397.315 124.113C396.869 126.447 395.909 128.632 394.517 130.486C393.809 131.455 393.026 132.358 392.177 133.186C391.853 132.584 391.556 132.049 391.304 131.598C392.029 130.854 392.699 130.05 393.308 129.193C394.483 127.6 395.298 125.736 395.686 123.746C396.025 121.498 396.75 119.337 397.824 117.373C398.196 116.704 398.671 116.109 399.229 115.611C399.695 115.173 400.288 114.92 400.908 114.896C401.278 114.895 401.64 115.012 401.949 115.232C402.407 115.59 402.743 116.099 402.906 116.681C403.105 117.374 403.199 118.097 403.186 118.822C403.186 119.135 403.186 119.465 403.141 119.814C403.023 121.5 402.799 123.175 402.469 124.828C402.357 125.394 402.257 125.844 402.184 126.181C402.184 126.253 402.156 126.313 402.145 126.38L402.229 126.289C402.803 125.534 403.306 124.718 403.728 123.854C405.984 119.229 407.546 114.249 408.357 109.1C408.558 107.614 408.981 106.172 409.61 104.831C410.277 103.38 411.355 102.193 412.688 101.44C413.67 100.915 414.754 100.647 415.85 100.658C416.51 100.653 417.167 100.744 417.803 100.929C417.946 100.981 418.073 101.074 418.171 101.196C418.269 101.319 418.336 101.467 418.363 101.626C418.7 103.959 418.86 106.318 418.839 108.679C418.855 113.399 418.254 118.099 417.054 122.64C415.527 128.472 412.765 133.845 408.983 138.338C405.626 142.353 402.076 146.178 398.35 149.798C398.233 149.089 398.115 148.391 397.964 147.724Z" fill="black"/>
<path d="M352.856 566.805C351.095 561.625 347.683 557.328 343.258 554.717C339.723 552.607 335.111 551.191 329.122 550.997L321.726 550.409L317.962 550.103L317.391 546.812C320.196 546.683 321.993 546.577 321.998 546.577C322.109 546.57 322.216 546.537 322.315 546.481C322.413 546.425 322.5 546.348 322.57 546.254C322.64 546.16 322.692 546.05 322.722 545.933C322.752 545.816 322.76 545.693 322.745 545.572V545.508C322.745 545.455 322.745 545.378 322.745 545.273C322.745 545.061 322.692 544.732 322.649 544.274C322.574 543.351 322.468 541.923 322.366 539.807C322.158 535.617 321.95 528.859 321.95 518.586C321.95 508.449 322.153 494.891 322.761 477.019C334.761 473.853 347.287 474.012 359.218 477.484L360.284 477.807C364.708 479.177 369.005 481.001 373.119 483.255C373.471 483.443 373.818 483.637 374.186 483.842C388.926 492.209 400.706 505.766 407.652 522.358C414.599 538.95 416.314 557.625 412.525 575.415H354.456C354.352 572.468 353.811 569.56 352.856 566.805Z" fill="#BDE2EA"/>
<path d="M214.042 537.181C214.037 537.348 214.076 537.513 214.154 537.657C214.233 537.8 214.347 537.915 214.483 537.988C215.651 538.593 216.867 539.076 218.116 539.432L216.013 547.674C203.87 517.976 175.708 497.163 142.894 497.163C141.879 497.163 140.864 497.163 139.855 497.227V438.444C152.127 433.703 165.27 432.374 178.118 434.576C190.967 436.778 203.125 442.442 213.516 451.066C213.874 473.317 214.299 494.93 214.299 514.002C214.32 522.256 214.242 530.035 214.042 537.181Z" fill="#BDE2EA"/>
<path d="M243.457 561.202C243.984 555.584 244.511 549.056 245.038 542.718C246.297 542.718 247.071 542.718 247.145 542.718C247.338 542.718 247.525 542.64 247.67 542.498C247.816 542.355 247.91 542.158 247.935 541.944C247.935 541.944 247.988 541.459 248.094 540.538C248.199 539.616 248.352 538.258 248.552 536.515C248.947 533.024 249.521 527.979 250.238 521.747C251.671 509.341 253.663 492.21 255.907 473.554C256.308 470.258 256.708 466.909 257.119 463.512C262.035 460.605 267.399 458.773 272.925 458.113C276.503 489.794 281.255 520.14 287.573 545.784C287.612 545.948 287.693 546.096 287.807 546.209C287.92 546.323 288.06 546.396 288.21 546.422C289.92 546.696 291.642 546.87 293.368 546.941C293.853 551.969 294.338 556.883 294.78 561.219C295.386 567.127 295.913 571.994 296.261 574.6C296.303 574.907 296.34 575.19 296.377 575.415H242.029C242.134 574.641 242.261 573.554 242.403 572.195C242.698 569.496 243.062 565.632 243.457 561.202Z" fill="#BDE2EA"/>
<path d="M61.5941 575.415C61.8749 571.143 62.4561 566.902 63.3323 562.733H116.755L120.29 575.415H61.5941Z" fill="#1F6E8C" fill-opacity="0.49"/>
<path d="M215.942 548.498L215.492 550.282L213.225 550.491L205.48 551.208C199.531 551.395 194.949 552.805 191.442 554.898C188.352 556.715 185.74 559.376 183.857 562.627C181.69 566.479 180.476 570.887 180.334 575.415H131.16L134.703 562.976H138.412C138.622 562.976 138.824 562.884 138.973 562.72C139.121 562.555 139.205 562.334 139.206 562.102V497.806C140.223 497.765 141.245 497.742 142.268 497.742C175.328 497.742 203.705 518.655 215.942 548.498Z" fill="#1F6E8C" fill-opacity="0.49"/>
<path d="M122.149 574.622L118.841 562.733H132.609L129.305 574.622H122.149Z" fill="black"/>
<path d="M120.288 575.415L116.667 562.733H118.366L121.728 574.494H128.997L132.353 562.733H134.058L130.437 575.415H120.288Z" fill="black"/>
<path d="M30.1203 574.622L26.8115 562.733H40.5796L37.2708 574.622H30.1203Z" fill="black"/>
<path d="M26.4087 562.733L29.9112 574.494H37.4802L40.9827 562.733H42.7537L38.9804 575.415H28.4109L24.6377 562.733H26.4087Z" fill="black"/>
<path d="M297.483 571.947C297.182 569.386 296.801 565.84 296.377 561.729C305.862 561.603 315.164 558.598 322.507 551.637L329.64 552.238H329.678C335.513 552.419 339.877 553.819 343.21 555.845C346.102 557.569 348.547 560.101 350.306 563.196C352.334 566.88 353.477 571.09 353.623 575.415H297.934C297.934 575.343 297.934 575.271 297.896 575.193C297.789 574.429 297.649 573.329 297.483 571.947Z" fill="black"/>
<path d="M294.928 561.088C294.951 561.306 295.045 561.506 295.191 561.652C295.337 561.798 295.526 561.88 295.722 561.881H295.994C305.736 561.881 315.335 558.858 322.823 551.62C322.945 551.506 323.033 551.353 323.077 551.182C323.12 551.011 323.117 550.829 323.067 550.66C323.017 550.491 322.923 550.343 322.797 550.234C322.67 550.126 322.518 550.063 322.359 550.052L329.751 550.648C335.737 550.839 340.347 552.282 343.88 554.422C348.303 557.072 351.713 561.431 353.474 566.686C354.427 569.477 354.967 572.424 355.073 575.409H353.474C353.329 571.118 352.194 566.943 350.18 563.288C348.431 560.23 346.006 557.729 343.139 556.026C339.851 554.035 335.497 552.646 329.703 552.449H329.666L322.583 551.853C315.292 558.757 306.061 561.738 296.638 561.863C297.059 565.935 297.438 569.453 297.736 571.999C297.902 573.37 298.04 574.461 298.147 575.194C298.147 575.272 298.173 575.343 298.184 575.415H296.585C296.548 575.164 296.51 574.902 296.468 574.592C296.073 571.987 295.54 567.098 294.928 561.088Z" fill="black"/>
<path d="M316.592 552.121L318.841 552.321C312.385 558.391 304.402 561.073 296.186 561.148C295.79 556.853 295.359 552.065 294.928 547.163C296.734 547.238 298.688 547.276 300.693 547.276C305.813 547.276 311.238 547.069 315.207 546.882L315.902 551.358C315.932 551.562 316.016 551.747 316.141 551.885C316.266 552.023 316.425 552.106 316.592 552.121Z" fill="white"/>
<path d="M323.873 551.04C323.923 551.204 323.926 551.38 323.883 551.546C323.839 551.712 323.75 551.86 323.626 551.973C315.959 559.004 306.069 561.941 296.058 561.941H295.762C295.561 561.94 295.367 561.861 295.216 561.719C295.066 561.577 294.97 561.382 294.946 561.171C294.486 556.919 293.982 552.1 293.478 547.171H293.944L295.138 547.218C295.603 551.759 296.069 556.195 296.496 560.174C305.362 560.087 313.977 557.62 320.943 551.996L318.517 551.811C318.336 551.797 318.165 551.72 318.03 551.592C317.895 551.464 317.804 551.293 317.772 551.104L317.022 546.957L318.665 546.882L319.251 550.125L323.117 550.427C323.288 550.433 323.452 550.496 323.588 550.606C323.723 550.716 323.823 550.868 323.873 551.04Z" fill="black"/>
<path d="M226.731 557.317C222.566 556.174 218.657 554.223 215.217 551.569L216.172 551.491C216.34 551.477 216.5 551.41 216.629 551.301C216.759 551.191 216.852 551.043 216.895 550.877L219.716 540.541C220.731 540.778 221.791 540.992 222.895 541.183C226.278 541.746 229.993 542.151 233.465 542.416C237.036 542.68 240.342 542.81 242.754 542.878C242.202 548.58 241.683 554.435 241.181 559.563C236.295 559.392 231.445 558.638 226.731 557.317Z" fill="white"/>
<path d="M242.716 561.148C242.727 561.029 242.716 560.908 242.684 560.794C242.653 560.68 242.601 560.575 242.533 560.485C242.466 560.397 242.385 560.325 242.294 560.274C242.203 560.223 242.104 560.194 242.003 560.189L241.304 560.154C241.755 554.857 242.246 548.809 242.716 542.919L244.203 542.954C243.707 549.193 243.212 555.618 242.716 561.148Z" fill="black"/>
<path d="M217.5 550.965C217.457 551.126 217.366 551.27 217.239 551.377C217.112 551.483 216.955 551.548 216.791 551.561L215.853 551.637C215.35 551.239 214.857 550.823 214.386 550.386C214.303 550.309 214.206 550.25 214.099 550.214C213.993 550.177 213.88 550.163 213.768 550.173L216.086 549.977L216.547 548.305L218.714 540.541C219.217 540.678 219.748 540.809 220.29 540.935L217.5 550.965Z" fill="black"/>
<path d="M192.984 555.931C196.281 553.934 200.653 552.54 206.474 552.343H206.523L214.014 551.637C217.669 555.285 222.18 557.707 226.99 559.256C231.66 560.696 236.464 561.518 241.304 561.708C241.021 564.872 240.769 567.688 240.523 570.033C240.272 572.503 240.063 574.386 239.913 575.415H182.609C182.715 572.642 183.219 569.906 184.102 567.312C185.723 562.435 188.882 558.389 192.984 555.931Z" fill="black"/>
<path d="M192.288 554.537C195.81 552.409 200.411 550.98 206.385 550.785L214.162 550.056C214.272 550.045 214.383 550.06 214.487 550.099C214.592 550.139 214.688 550.203 214.769 550.287C215.231 550.761 215.716 551.212 216.21 551.644C219.525 554.441 223.293 556.498 227.307 557.703C231.85 559.096 236.524 559.891 241.234 560.074L241.984 560.109C242.092 560.114 242.198 560.144 242.296 560.196C242.394 560.248 242.481 560.321 242.553 560.412C242.626 560.503 242.681 560.61 242.715 560.726C242.749 560.843 242.761 560.966 242.75 561.087C242.351 565.533 241.984 569.386 241.686 572.184C241.542 573.548 241.414 574.638 241.308 575.415H239.712C239.861 574.407 240.069 572.54 240.319 570.08C240.547 567.78 240.813 564.964 241.095 561.828C236.291 561.642 231.522 560.831 226.887 559.41C222.099 557.875 217.62 555.474 213.987 551.858L206.539 552.557H206.491C200.704 552.735 196.358 554.116 193.081 556.114C189.001 558.543 185.857 562.548 184.24 567.377C183.362 569.948 182.861 572.66 182.755 575.409H181.159C181.302 570.804 182.521 566.321 184.697 562.403C186.58 559.099 189.194 556.39 192.288 554.537Z" fill="black"/>
<path d="M272.555 352.6C281.711 314.728 283.713 278.206 283.713 253.501C283.713 243.394 283.376 235.272 283.056 229.849L285.915 229.884C285.009 249.393 284.434 268.867 284.434 286.945C284.434 296.4 284.591 305.459 284.944 313.931C284.949 314.066 284.983 314.198 285.044 314.317C285.106 314.435 285.192 314.536 285.296 314.612C293.285 320.595 302.799 323.792 312.542 323.77C315.605 323.766 318.662 323.468 321.676 322.88C323.368 350.756 324.638 380.709 324.638 407.963C324.638 419.541 324.41 430.655 323.889 440.872C322.029 477.418 321.508 501.896 321.508 517.861C321.508 534.013 322.05 541.455 322.267 543.881L321.183 543.934C319.946 543.998 318.188 544.085 316.111 544.167C311.956 544.335 306.516 544.504 301.379 544.504C298.808 544.504 296.318 544.458 294.105 544.359C292.147 544.266 290.406 544.12 289.039 543.922C277.421 498.504 270.96 438.137 267.391 381.989C268.113 377.265 268.802 372.889 269.453 368.962C270.63 361.846 271.687 356.185 272.555 352.6Z" fill="white"/>
<path d="M322.721 539.484C322.821 541.561 322.927 542.984 323.002 543.918C323.044 544.373 323.076 544.7 323.097 544.91C323.097 545.015 323.097 545.091 323.097 545.143V545.207C323.112 545.327 323.104 545.449 323.074 545.566C323.044 545.682 322.993 545.79 322.923 545.884C322.854 545.978 322.767 546.054 322.669 546.11C322.571 546.165 322.464 546.197 322.355 546.205C322.355 546.205 320.562 546.31 317.771 546.438L316.18 546.514C312.032 546.689 306.361 546.882 301.009 546.882C298.887 546.882 296.871 546.847 294.983 546.777L293.826 546.73H293.375C291.637 546.66 289.904 546.488 288.182 546.217C288.031 546.192 287.89 546.119 287.776 546.007C287.662 545.895 287.58 545.749 287.54 545.587C281.175 520.242 276.401 490.287 272.794 458.997C270.173 436.243 268.178 412.747 266.667 389.823C267.038 387.198 267.409 384.642 267.77 382.192C271.26 438.495 277.578 499.027 288.941 544.571C290.278 544.77 291.98 544.916 293.895 545.009C296.06 545.108 298.494 545.155 301.009 545.155C306.032 545.155 311.353 544.986 315.416 544.816C317.448 544.735 319.166 544.647 320.376 544.583L321.437 544.531C321.214 542.098 320.694 534.612 320.694 518.439C320.694 502.429 321.225 477.883 323.023 441.237C323.553 430.968 323.755 419.848 323.755 408.237C323.755 380.908 322.514 350.872 320.859 322.919C321.389 322.814 321.92 322.698 322.45 322.581C324.116 350.622 325.362 380.78 325.362 408.237C325.362 419.871 325.14 431.027 324.625 441.33C323.957 454.878 323.463 466.763 323.108 477.171C322.503 494.914 322.302 508.374 322.302 518.439C322.307 528.614 322.514 535.324 322.721 539.484Z" fill="black"/>
<path d="M281.285 230.594C281.582 235.989 281.884 243.786 281.884 253.39C281.884 278.091 279.898 314.647 270.835 352.489C269.95 356.183 268.892 361.888 267.709 369.077C266.527 376.267 265.226 384.923 263.861 394.492C261.13 413.635 258.145 436.419 255.376 458.286C250.285 498.483 245.935 535.594 245.265 541.334C244.046 541.334 241.357 541.275 238.011 541.106C232.993 540.895 227.99 540.372 223.027 539.539C220.459 539.136 217.943 538.412 215.529 537.383C215.723 530.316 215.799 522.664 215.799 514.586C215.799 481.304 214.493 440.446 214.493 401.816C214.493 384.52 214.752 367.674 215.513 352.161C216.031 341.558 216.663 331.391 217.408 321.661C222.49 322.479 227.621 322.893 232.759 322.9C242.932 322.958 253.037 321.095 262.619 317.394C262.762 317.34 262.888 317.245 262.983 317.118C263.079 316.991 263.14 316.838 263.159 316.675C263.434 314.25 263.963 307.715 264.611 298.257C265.259 288.8 266.02 276.443 266.743 262.421C267.283 252.045 267.823 240.753 268.249 229.056C272.406 229.319 276.81 229.489 281.204 229.577C281.247 229.904 281.269 230.243 281.285 230.594Z" fill="white"/>
<path d="M218.219 321.775C217.51 331.474 216.888 341.625 216.352 352.227C215.603 367.715 215.347 384.534 215.347 401.802C215.347 440.371 216.634 481.17 216.634 514.393C216.634 522.488 216.56 530.15 216.368 537.153C218.746 538.181 221.225 538.904 223.755 539.307C228.644 540.138 233.572 540.66 238.516 540.871C241.813 541.04 244.461 541.086 245.663 541.098C246.323 535.367 250.609 498.315 255.623 458.182C258.351 436.35 261.292 413.602 263.982 394.49C265.328 384.937 266.641 376.288 267.774 369.116C268.907 361.943 269.981 356.242 270.853 352.553C279.776 314.801 281.738 278.304 281.738 253.624C281.738 244.059 281.44 236.274 281.148 230.864C281.148 230.514 281.11 230.176 281.095 229.849L282.69 229.878C283.004 235.317 283.333 243.464 283.333 253.601C283.333 278.362 281.371 314.994 272.395 352.979C271.544 356.574 270.507 362.253 269.348 369.407C268.71 373.347 268.034 377.735 267.327 382.474C266.966 384.925 266.593 387.481 266.221 390.107C263.105 411.892 259.569 439.204 256.426 464.672C256.011 468.01 255.607 471.319 255.203 474.593C252.938 493.046 250.949 509.929 249.481 522.202C248.758 528.341 248.178 533.325 247.78 536.791C247.578 538.542 247.423 539.855 247.317 540.765C247.211 541.676 247.157 542.149 247.157 542.154C247.132 542.366 247.036 542.561 246.89 542.701C246.743 542.842 246.555 542.919 246.36 542.919C246.269 542.919 245.488 542.919 244.233 542.919L242.637 542.884C240.314 542.814 237.128 542.68 233.688 542.405C230.343 542.131 226.775 541.728 223.505 541.127C222.441 540.929 221.42 540.707 220.442 540.462C219.91 540.328 219.378 540.188 218.894 540.042C217.631 539.684 216.401 539.197 215.22 538.589C215.082 538.515 214.966 538.4 214.887 538.256C214.808 538.112 214.768 537.946 214.773 537.777C214.975 530.588 215.055 522.762 215.055 514.434C215.055 495.246 214.624 473.501 214.263 451.115C213.997 434.775 213.768 418.125 213.768 401.843C213.768 384.557 214.023 367.709 214.773 352.174C215.287 341.526 215.915 331.317 216.656 321.548L218.219 321.775Z" fill="black"/>
<path d="M339.537 168.824C339.55 168.992 339.608 169.153 339.703 169.287C339.798 169.421 339.927 169.523 340.074 169.58C340.216 169.641 340.372 169.656 340.522 169.624C340.672 169.592 340.811 169.514 340.921 169.4C363.333 146.318 386.62 133.316 390.72 131.116L391.032 131.663C391.466 132.426 392.062 133.514 392.728 134.823C394.301 137.877 395.623 141.075 396.678 144.38C397.336 146.381 397.723 148.474 397.826 150.596C384.876 171.018 373.015 184.904 362.335 193.663C351.655 202.422 342.113 206.071 333.864 206.071C333.44 206.071 333.016 206.071 332.592 206.042C332.394 190.282 331.996 174.743 331.315 160.879C331.304 160.65 331.209 160.435 331.052 160.282C330.896 160.128 330.689 160.048 330.478 160.059L328.986 119.68C333.987 131.576 338.249 147.645 339.537 168.824Z" fill="white"/>
<path d="M316.057 94.2222L315.895 93.9994L315.742 93.7823C314.843 92.5083 313.943 91.3656 313.043 90.3544C315.427 92.995 317.611 95.9139 319.565 99.0728C317.676 96.2162 316.21 94.4051 316.057 94.2222Z" fill="black"/>
<path d="M332.654 205.849C333.076 205.849 333.499 205.878 333.921 205.878C342.141 205.878 351.612 202.228 362.291 193.384C372.97 184.539 384.751 170.623 397.655 150.097C397.549 147.975 397.164 145.881 396.511 143.879C395.45 140.564 394.124 137.358 392.548 134.298C391.885 132.982 391.291 131.888 390.858 131.122L390.548 130.572C386.462 132.783 363.275 145.851 340.927 169.05C340.816 169.165 340.678 169.243 340.529 169.275C340.379 169.307 340.224 169.292 340.082 169.231C339.936 169.174 339.808 169.071 339.713 168.937C339.618 168.802 339.561 168.64 339.547 168.471C338.264 147.19 334.018 131.034 329.034 119.078L328.986 117.68C329.066 117.675 329.145 117.66 329.221 117.633C329.32 117.594 329.412 117.534 329.49 117.457C329.568 117.38 329.632 117.286 329.677 117.182C329.722 117.077 329.748 116.964 329.754 116.849C329.759 116.734 329.743 116.618 329.707 116.51C334.964 128.536 339.536 144.862 341.039 166.535C365.489 141.54 390.441 128.671 390.5 128.618C390.674 128.528 390.872 128.51 391.058 128.567C391.244 128.624 391.404 128.752 391.511 128.928C391.511 128.928 391.858 129.513 392.398 130.478C392.639 130.917 392.933 131.432 393.232 132.023C393.869 133.228 394.618 134.719 395.372 136.375C396.406 138.612 397.3 140.924 398.045 143.295C398.334 144.266 398.58 145.231 398.789 146.19C398.933 146.869 399.045 147.547 399.131 148.214C399.223 148.925 399.271 149.642 399.275 150.361C399.275 150.538 399.227 150.711 399.136 150.858C386.104 171.612 374.147 185.779 363.269 194.788C352.392 203.796 342.595 207.657 333.932 207.657C333.515 207.657 333.098 207.657 332.686 207.627C332.686 207.019 332.659 206.434 332.654 205.849Z" fill="black"/>
<path d="M286.274 180.436C285.319 181.393 284.505 182.507 283.859 183.738C282.104 186.9 279.439 189.325 276.287 190.629C275.933 190.78 275.59 190.902 275.262 191.012C275.024 190.869 274.77 190.757 274.507 190.681C273.726 190.51 272.93 190.436 272.134 190.46C271.305 190.46 270.343 190.506 269.276 190.57C269.408 182.936 269.476 175.354 269.476 167.952C269.476 161.184 269.418 154.579 269.286 148.183C268.573 114.395 261.603 88.3517 260.145 83.2466C262.882 82.5547 265.429 82.0314 267.743 81.636C267.743 82.3686 267.775 83.0954 267.801 83.799C267.806 83.9924 267.87 84.1785 267.981 84.3281L279.511 99.5272C279.593 99.6384 279.7 99.7249 279.821 99.7788C279.942 99.8327 280.073 99.8521 280.203 99.8353L280.916 99.7481C281.124 99.7164 281.314 99.5977 281.445 99.4167L291.373 85.3514C291.466 85.216 291.522 85.055 291.537 84.8863L291.764 81.8279C293.148 82.1709 294.649 82.607 296.24 83.1768L296.377 83.2292C295.769 89.0146 291.532 129.966 288.15 179.383C287.898 179.428 287.653 179.508 287.421 179.622C287.005 179.83 286.618 180.104 286.274 180.436Z" fill="#BDE2EA"/>
<path d="M268.116 227.645C268.212 224.776 268.304 221.89 268.392 218.988C272.215 217.388 275.955 215.527 279.595 213.415C279.725 213.335 279.834 213.215 279.91 213.067C279.985 212.919 280.025 212.75 280.025 212.577C280.025 212.577 280.025 211.683 279.967 210.276L286.232 208.449C285.887 215.023 285.568 221.64 285.287 228.264C279.494 228.214 273.585 228.02 268.116 227.645Z" fill="#BDE2EA"/>
<path d="M297.222 81.1335C297.07 81.2754 296.97 81.4862 296.943 81.7196C296.943 81.7196 296.943 81.9657 296.877 82.4286L296.754 82.3759C295.337 81.7899 293.991 81.3621 292.754 81.0163L292.872 79.2583C294.548 79.715 296.203 80.2902 297.826 80.9812H297.769C297.675 80.9606 297.577 80.9635 297.483 80.9896C297.389 81.0157 297.3 81.0647 297.222 81.1335Z" fill="black"/>
<path d="M280.975 229.805C276.597 229.746 272.225 229.631 268.116 229.453L268.18 228.264C273.699 228.501 279.683 228.624 285.507 228.66C285.475 229.056 285.448 229.453 285.422 229.849L282.598 229.825L280.975 229.805Z" fill="black"/>
<path d="M268.116 80.9145C265.62 81.2862 262.886 81.7782 259.941 82.4286C259.759 81.882 259.656 81.5759 259.656 81.5705C259.593 81.394 259.469 81.2437 259.304 81.1443C259.14 81.0449 258.945 81.0024 258.753 81.0238H258.696C262.107 80.2477 265.245 79.6737 268.088 79.2583C268.093 79.8213 268.105 80.3679 268.116 80.9145Z" fill="black"/>
<path d="M277.186 57.9367C277.84 57.5432 278.388 56.9749 278.776 56.2873C279.132 55.6406 279.389 54.9371 279.537 54.2035C279.85 52.7712 279.91 51.2685 280.113 50.0535C280.195 49.3695 280.402 48.7095 280.721 48.1106C280.873 47.8682 281.076 47.6672 281.313 47.5236C281.683 47.313 282.094 47.2003 282.513 47.1949H282.716C283.019 47.1713 283.323 47.2384 283.593 47.3886C283.719 47.4802 283.808 47.6213 283.839 47.7819C283.884 47.9736 283.904 48.1711 283.899 48.3688C283.863 49.1281 283.755 49.8814 283.576 50.617C283.378 51.4551 283.258 52.3125 283.22 53.1762C283.215 53.577 283.28 53.9752 283.412 54.3502C283.572 54.7774 283.862 55.1348 284.234 55.3657C284.496 55.5228 284.785 55.6244 285.083 55.6651C285.232 55.6883 285.382 55.7 285.532 55.7003C285.913 55.6994 286.288 55.6051 286.628 55.4244C286.951 55.2402 287.231 54.9792 287.445 54.6613C287.843 54.0132 288.112 53.2837 288.234 52.5188C288.552 50.9222 288.65 48.9617 289.001 47.0716C289.176 46.0355 289.469 45.0262 289.872 44.0662C290.706 44.167 291.544 44.2199 292.382 44.2247C295.682 44.2675 298.934 43.3744 301.808 41.6361C303.687 40.4739 305.379 38.9931 306.816 37.2513C307.052 40.6148 307.244 44.5065 307.244 48.4334C307.272 52.0704 307.061 55.7049 306.614 59.3102C306.164 62.6678 305.419 65.6027 304.34 67.6454C303.776 68.8398 302.885 69.821 301.786 70.4571C301.201 70.7579 300.56 70.9105 299.912 70.9032H292.119C291.914 70.9038 291.716 70.9867 291.565 71.1355C291.414 71.2843 291.321 71.4883 291.303 71.7074L290.3 84.621L280.398 98.2802L268.934 83.6056C268.873 81.6392 268.841 79.5495 268.841 77.3659C268.841 71.6311 269.06 65.274 269.536 59.0872C270.275 59.2052 271.02 59.2661 271.767 59.2692C273.649 59.3138 275.511 58.8558 277.186 57.9367Z" fill="white"/>
<path d="M291.969 81.0722L291.743 84.1284C291.729 84.297 291.673 84.4579 291.581 84.5933L281.719 98.6486C281.589 98.8295 281.401 98.9481 281.194 98.9798L280.486 99.067C280.357 99.0837 280.227 99.0643 280.107 99.0105C279.986 98.9567 279.88 98.8702 279.798 98.759L268.352 83.5881C268.241 83.4386 268.178 83.2526 268.174 83.0593C268.174 82.3563 268.132 81.63 268.116 80.8979C268.116 80.3168 268.116 79.7358 268.116 79.1547C268.116 78.3006 268.116 77.4116 268.116 76.5459C268.116 70.7355 268.331 64.344 268.803 58.0978C269.322 58.248 269.848 58.3663 270.378 58.4523C269.921 64.5764 269.711 70.8691 269.711 76.5459C269.711 78.7073 269.743 80.7758 269.801 82.7223L280.78 97.2483L290.263 83.7275L291.224 70.9446C291.241 70.7278 291.331 70.5259 291.475 70.3786C291.62 70.2313 291.809 70.1493 292.006 70.1486H299.395C300.016 70.1559 300.63 70.0048 301.19 69.707C302.243 69.0774 303.096 68.1061 303.636 66.9238C304.686 64.9018 305.384 61.9966 305.814 58.6731C306.243 55.1043 306.444 51.5065 306.417 47.9064C306.417 44.0192 306.234 40.1669 306.008 36.8376C306.349 36.4134 306.68 35.9893 306.979 35.5593C307.142 35.3327 307.294 35.1061 307.446 34.8737C307.735 38.6097 307.971 43.2232 307.971 47.9064C307.971 53.6413 307.598 59.4749 306.396 63.978C305.922 66.0288 305.052 67.9416 303.846 69.585C303.295 70.2893 302.622 70.8642 301.867 71.2758C301.093 71.6867 300.244 71.8973 299.385 71.8917H292.646L292.09 79.3L291.969 81.0722Z" fill="black"/>
<path d="M300.377 39.696C297.793 41.2755 294.872 42.084 291.908 42.0395C290.957 42.038 290.007 41.9695 289.064 41.8344C288.903 41.8107 288.74 41.8406 288.596 41.9201C288.451 41.9997 288.333 42.1251 288.256 42.2797C287.566 43.7262 287.107 45.2891 286.898 46.9022C286.656 48.4489 286.537 49.9429 286.359 51.1146C286.287 51.7394 286.131 52.3493 285.896 52.9249C285.825 53.0909 285.722 53.2387 285.594 53.3585C285.467 53.4548 285.313 53.5022 285.158 53.4932H284.942C284.854 53.4816 284.769 53.4539 284.689 53.4112L284.603 53.3292C284.521 53.1474 284.486 52.945 284.501 52.7433C284.54 52.0072 284.646 51.2771 284.818 50.5639C285.016 49.7059 285.133 48.8285 285.169 47.945C285.174 47.5475 285.12 47.1516 285.007 46.7733C284.885 46.359 284.659 45.9897 284.355 45.707C284.138 45.5055 283.887 45.3505 283.617 45.25C283.221 45.1063 282.806 45.037 282.389 45.045H282.114C281.609 45.0655 281.11 45.1763 280.638 45.3731C280.22 45.5551 279.84 45.8283 279.523 46.1757C278.953 46.843 278.564 47.668 278.397 48.5602C278.27 49.1397 278.173 49.7265 278.106 50.3178C278.014 51.1146 277.944 51.9172 277.826 52.6613C277.73 53.5354 277.462 54.3768 277.039 55.1278C276.812 55.4878 276.511 55.7864 276.161 56.0007C274.758 56.7487 273.208 57.1127 271.647 57.0612C270.073 57.0662 268.511 56.7563 267.041 56.1472C265.567 55.5508 264.266 54.54 263.269 53.2179C262.603 52.3017 262.115 51.2471 261.836 50.1186C262.698 45.4317 263.792 42.8304 264.665 41.4712C265.538 40.112 266.179 39.9421 266.216 39.9245C266.431 39.9245 266.636 39.8319 266.788 39.6671C266.939 39.5023 267.024 39.2788 267.024 39.0457C267.024 38.8126 266.939 38.5891 266.788 38.4243C266.636 38.2595 266.431 38.1669 266.216 38.1669H266.092C265.985 38.1376 265.818 38.1024 265.602 38.038C265.023 37.8532 264.462 37.6079 263.927 37.3057C262.148 36.2994 260.731 34.6739 259.902 32.689C259.054 30.6029 258.643 28.3373 258.701 26.057C258.704 25.1134 258.754 24.1707 258.852 23.2331C258.974 21.6811 259.365 20.1684 260.005 18.7746C260.494 17.7378 261.196 16.8376 262.057 16.1441C263.72 14.9485 265.69 14.3596 267.682 14.4626C269.941 14.5116 272.179 14.9567 274.308 15.7808C274.434 15.8294 274.568 15.8434 274.7 15.8216C274.832 15.7998 274.957 15.7429 275.064 15.6558C275.17 15.5688 275.255 15.4545 275.312 15.3229C275.368 15.1914 275.393 15.0468 275.385 14.902V14.8727C275.388 14.8278 275.388 14.7829 275.385 14.738C275.385 14.6208 275.385 14.445 275.385 14.2224C275.395 12.6213 275.576 11.0268 275.924 9.47101C276.317 7.3905 277.23 5.46841 278.564 3.91697C279.599 2.81534 280.911 2.07306 282.335 1.78441C282.92 1.65416 283.516 1.58743 284.113 1.58521C285.36 1.58321 286.591 1.89819 287.706 2.50503C288.775 3.0918 289.727 3.90209 290.507 4.88952C292.008 6.7272 292.871 9.07709 292.948 11.5333C292.967 12.4742 292.772 13.4058 292.382 14.2458C292.291 14.4327 292.264 14.6492 292.308 14.8555C292.352 15.0618 292.462 15.2441 292.619 15.3688C292.777 15.4936 292.97 15.5524 293.164 15.5344C293.358 15.5164 293.539 15.423 293.675 15.2711C294.522 14.2905 295.533 13.495 296.654 12.9276C297.577 12.4681 298.581 12.2303 299.596 12.2305C301.701 12.3145 303.717 13.1716 305.317 14.6618C307.022 16.167 308.38 18.0851 309.282 20.2627C309.817 21.5188 310.11 22.8804 310.144 24.2642C310.16 25.1036 309.992 25.9352 309.654 26.6897L309.594 26.842V26.9065C309.594 26.9651 309.551 27.0588 309.514 27.176C309.438 27.4162 309.32 27.7618 309.158 28.2012C308.712 29.3843 308.19 30.5316 307.596 31.6344C305.876 34.9597 303.388 37.7387 300.377 39.696Z" fill="black"/>
<path d="M306.597 37.8342C305.173 39.6103 303.498 41.1203 301.636 42.3054C298.789 44.0779 295.568 44.9885 292.3 44.945C291.469 44.9401 290.639 44.8861 289.814 44.7833C289.414 45.7623 289.124 46.7914 288.951 47.8479C288.603 49.7752 288.506 51.7744 288.191 53.4024C288.07 54.1824 287.804 54.9263 287.409 55.5871C287.197 55.9112 286.92 56.1774 286.6 56.3652C286.263 56.5495 285.891 56.6457 285.515 56.6466C285.366 56.6463 285.217 56.6343 285.07 56.6107C284.774 56.5692 284.488 56.4656 284.228 56.3054C283.86 56.0699 283.573 55.7055 283.414 55.2699C283.283 54.8875 283.219 54.4814 283.224 54.0728C283.262 53.1921 283.38 52.3178 283.577 51.4631C283.754 50.713 283.862 49.9449 283.897 49.1707C283.902 48.9691 283.882 48.7677 283.838 48.5722C283.807 48.4084 283.719 48.2645 283.593 48.1711C283.326 48.018 283.025 47.9496 282.725 47.9736H282.524C282.109 47.9792 281.702 48.0941 281.335 48.3088C281.1 48.4552 280.899 48.6602 280.749 48.9073C280.43 49.5135 280.222 50.1824 280.136 50.8766C279.935 52.1275 279.875 53.6478 279.566 55.1083C279.418 55.8564 279.164 56.5737 278.811 57.2331C278.427 57.9343 277.885 58.5138 277.237 58.9151C275.581 59.8339 273.744 60.2863 271.89 60.2319C271.151 60.2287 270.413 60.1667 269.681 60.0463C269.133 59.9577 268.589 59.8358 268.053 59.6812C266.976 59.3736 265.941 58.9086 264.975 58.2986C263.891 57.621 262.931 56.7281 262.142 55.6649C261.294 54.4797 260.682 53.1114 260.345 51.6487C260.321 51.5184 260.321 51.3839 260.345 51.2536C261.344 45.6273 262.657 42.6585 263.819 41.0364C263.986 40.8074 264.168 40.5914 264.362 40.39C261.82 39.2845 259.763 37.1405 258.619 34.4045C257.661 32.0338 257.194 29.4575 257.251 26.8628C257.253 25.8349 257.305 24.8079 257.409 23.7863C257.544 21.9662 257.992 20.191 258.728 18.555C259.615 16.6458 261.066 15.1276 262.842 14.2514C264.436 13.4997 266.156 13.1285 267.89 13.1621C269.975 13.1958 272.046 13.5545 274.04 14.2275C274.077 11.8204 274.487 9.43791 275.25 7.18258C275.797 5.58883 276.64 4.13907 277.726 2.92691C278.98 1.55583 280.574 0.623119 282.307 0.245414C283.003 0.0833176 283.712 0.00107817 284.424 9.4963e-06C285.931 -0.00220547 287.418 0.383083 288.766 1.12528C290.653 2.19091 292.23 3.82144 293.315 5.82986C294.362 7.67341 294.936 9.79589 294.976 11.971C294.976 12.2104 294.976 12.4438 294.943 12.6772C295.411 12.3307 295.905 12.0283 296.42 11.7734C297.56 11.202 298.798 10.9061 300.051 10.9055C301.701 10.9302 303.321 11.4008 304.768 12.2762C306.951 13.6122 308.799 15.5249 310.147 17.8427C311.472 19.9623 312.225 22.4529 312.318 25.0253C312.332 26.1239 312.116 27.2112 311.689 28.2036C310.859 30.9392 309.649 33.5159 308.101 35.841C307.943 36.0805 307.786 36.3139 307.618 36.5473C307.276 36.9603 306.95 37.3973 306.597 37.8342ZM309.659 29.0356C309.821 28.5866 309.941 28.2335 310.017 27.9881C310.055 27.8684 310.082 27.7726 310.098 27.7128V27.6469L310.158 27.4913C310.499 26.7205 310.668 25.8709 310.652 25.0133C310.618 23.5996 310.322 22.2085 309.783 20.9252C308.875 18.7004 307.506 16.7409 305.788 15.2031C304.177 13.6806 302.145 12.805 300.024 12.7191C299.001 12.7189 297.99 12.9619 297.06 13.4314C295.93 14.0111 294.911 14.8238 294.058 15.8256C293.922 15.9807 293.739 16.0762 293.544 16.0946C293.348 16.1129 293.153 16.0529 292.995 15.9254C292.836 15.798 292.725 15.6118 292.681 15.401C292.637 15.1902 292.664 14.9691 292.756 14.7782C293.162 13.9113 293.365 12.9464 293.347 11.971C293.268 9.44953 292.388 7.03897 290.861 5.15949C290.075 4.1507 289.116 3.32287 288.039 2.7234C286.914 2.10757 285.674 1.78988 284.418 1.79565C283.817 1.79792 283.217 1.86609 282.627 1.99916C281.193 2.29405 279.87 3.0524 278.827 4.17787C277.48 5.75579 276.554 7.71308 276.151 9.83415C275.801 11.4236 275.619 13.0526 275.609 14.6884C275.609 14.9158 275.609 15.0954 275.609 15.2151C275.611 15.2609 275.611 15.3069 275.609 15.3528V15.3827C275.616 15.5306 275.591 15.6783 275.534 15.8127C275.478 15.9471 275.392 16.0639 275.284 16.1528C275.177 16.2417 275.051 16.2999 274.918 16.3222C274.785 16.3445 274.65 16.3301 274.523 16.2805C272.39 15.4538 270.151 15.0092 267.89 14.9637C265.884 14.8584 263.899 15.4601 262.223 16.6815C261.354 17.3893 260.644 18.3091 260.15 19.369C259.509 20.7997 259.12 22.3514 259.004 23.9419C258.906 24.8998 258.855 25.8629 258.852 26.8269C258.793 29.1497 259.203 31.4579 260.052 33.5845C260.879 35.5811 262.282 37.2203 264.042 38.2472C264.581 38.556 265.146 38.8066 265.73 38.9954C265.947 39.0612 266.115 39.0971 266.224 39.1271H266.348C266.564 39.1271 266.771 39.2217 266.924 39.39C267.077 39.5584 267.163 39.7868 267.163 40.0249C267.163 40.263 267.077 40.4914 266.924 40.6597C266.771 40.8281 266.564 40.9227 266.348 40.9227C266.31 40.9227 265.681 41.0843 264.785 42.5029C263.89 43.9214 262.804 46.5251 261.935 51.3374C262.216 52.4903 262.707 53.5678 263.379 54.5038C264.383 55.8545 265.695 56.8872 267.179 57.4965C268.661 58.1188 270.234 58.4353 271.82 58.4302C273.393 58.4829 274.955 58.111 276.369 57.3469C276.721 57.1279 277.024 56.8228 277.253 56.455C277.679 55.6877 277.949 54.8282 278.046 53.9351C278.165 53.181 278.236 52.361 278.328 51.541C278.395 50.9368 278.493 50.3374 278.621 49.7453C278.789 48.8338 279.182 47.9909 279.756 47.3092C280.076 46.9542 280.458 46.6752 280.879 46.4892C281.355 46.2882 281.857 46.175 282.367 46.154H282.643C283.064 46.1459 283.482 46.2167 283.881 46.3635C284.153 46.4661 284.406 46.6245 284.625 46.8304C284.931 47.1192 285.158 47.4964 285.281 47.9197C285.395 48.3062 285.45 48.7106 285.444 49.1168C285.408 50.0194 285.29 50.9158 285.091 51.7923C284.918 52.521 284.811 53.2669 284.771 54.0189C284.756 54.225 284.792 54.4317 284.874 54.6175L284.961 54.7013C285.041 54.7449 285.127 54.7732 285.216 54.7851H285.433C285.59 54.7942 285.744 54.7458 285.873 54.6474C286.001 54.525 286.105 54.3741 286.177 54.2045C286.414 53.6164 286.571 52.9933 286.644 52.355C286.828 51.1579 286.948 49.6316 287.187 48.0514C287.398 46.4034 287.86 44.8067 288.554 43.3289C288.632 43.1709 288.752 43.0428 288.897 42.9615C289.043 42.8803 289.207 42.8497 289.369 42.874C290.319 43.0119 291.276 43.0819 292.235 43.0835C295.221 43.1289 298.164 42.303 300.767 40.6893C303.789 38.6963 306.288 35.8702 308.019 32.4892C308.639 31.3819 309.186 30.2278 309.659 29.0356Z" fill="black"/>
<path d="M252.77 191.009C250.165 191.039 247.561 190.861 244.982 190.476C242.922 190.208 240.927 189.541 239.1 188.51C238.195 187.976 237.439 187.203 236.909 186.268C236.078 184.613 235.522 182.822 235.266 180.971C234.927 178.77 234.766 176.544 234.784 174.315C234.784 165.59 236.75 156.24 236.975 155.133V155.024C237.024 154.803 236.988 154.571 236.874 154.377C236.76 154.184 236.578 154.046 236.367 153.992H236.307L246.532 87.5151L246.811 87.4062C247.739 87.024 248.708 86.6858 249.719 86.3915L247.288 109.449C247.275 109.568 247.287 109.689 247.322 109.804C247.356 109.918 247.414 110.024 247.49 110.114L256.494 120.788L251.965 137.901C251.93 138.03 251.925 138.165 251.95 138.297C251.975 138.428 252.028 138.552 252.107 138.657L252.206 138.789L252.485 139.173C252.732 139.517 253.093 140.016 253.537 140.652C254.424 141.919 255.656 143.731 257.025 145.892C259.764 150.22 263.083 155.947 265.323 161.52C266.823 165.229 267.837 168.869 267.924 171.913C267.93 172.103 267.998 172.285 268.116 172.429C268.116 178.265 268.017 184.199 267.913 190.161L263.811 190.476C260.344 190.74 256.483 191.009 252.77 191.009Z" fill="white"/>
<path d="M261.18 150.036C258.766 145.919 256.153 141.932 253.35 138.089L257.987 120.719C258.024 120.579 258.027 120.432 257.995 120.291C257.964 120.15 257.9 120.02 257.808 119.911L248.551 109.028L251.068 85.3728C253.436 84.7639 255.838 84.31 258.261 84.0138C258.311 84.1764 258.367 84.3681 258.434 84.5946C258.68 85.4251 259.038 86.6563 259.469 88.2534C260.33 91.4419 261.482 96.0938 262.668 101.919C265.783 117.279 267.541 132.903 267.92 148.596C268.038 153.863 268.099 159.311 268.116 164.857C267.743 163.672 267.309 162.478 266.813 161.274C265.194 157.394 263.312 153.639 261.18 150.036Z" fill="white"/>
<path d="M263.454 297.983C262.859 306.768 262.382 313.087 262.081 315.81C252.863 319.314 243.163 321.068 233.402 320.994C223.055 321.004 212.768 319.284 202.899 315.892C204.443 309.421 215.235 263.827 222.315 221.671C223.556 222.273 224.827 222.795 226.123 223.235C230.487 224.658 235.022 225.353 239.575 225.296C249.643 225.296 259.753 222.421 267.391 219.545C266.362 250.568 264.683 279.71 263.454 297.983ZM236.314 265.801C232.935 265.057 229.572 263.728 227.196 261.526C227.116 261.449 227.022 261.39 226.921 261.352C226.82 261.315 226.713 261.299 226.607 261.307C226.5 261.315 226.396 261.345 226.3 261.397C226.204 261.448 226.119 261.52 226.048 261.608C225.978 261.695 225.924 261.797 225.889 261.908C225.855 262.018 225.841 262.135 225.848 262.251C225.855 262.368 225.883 262.481 225.93 262.586C225.977 262.69 226.043 262.784 226.123 262.861C228.805 265.362 232.415 266.738 235.95 267.546C239.062 268.196 242.226 268.514 245.395 268.495C247.422 268.495 248.737 268.378 248.753 268.372C248.858 268.362 248.961 268.329 249.055 268.276C249.149 268.223 249.233 268.149 249.301 268.061C249.369 267.972 249.421 267.87 249.453 267.759C249.485 267.649 249.497 267.533 249.487 267.417C249.478 267.302 249.448 267.19 249.399 267.087C249.351 266.984 249.284 266.893 249.202 266.818C249.121 266.744 249.027 266.688 248.926 266.653C248.825 266.618 248.719 266.605 248.613 266.615H248.592H248.425C248.275 266.615 248.055 266.644 247.776 266.656C247.24 266.685 246.409 266.714 245.422 266.714C242.366 266.733 239.316 266.427 236.314 265.801Z" fill="white"/>
<path d="M246.377 84.8063C244.635 85.7217 242.941 86.7807 241.304 87.9766C242.918 86.7244 244.616 85.6633 246.377 84.8063Z" fill="black"/>
<path d="M250.152 83.5674L250.009 85.5716C248.904 86.0635 247.848 86.601 246.842 87.1841L246.973 87.1021C247.197 86.9813 247.38 86.7296 247.483 86.4024C247.585 86.0753 247.598 85.6994 247.519 85.3575C247.44 85.0156 247.275 84.7357 247.061 84.5794C246.847 84.4231 246.601 84.4031 246.377 84.5239C247.749 83.7465 249.198 83.0481 250.725 82.4286C250.57 82.5195 250.434 82.6739 250.333 82.8748C250.232 83.0758 250.17 83.3154 250.152 83.5674Z" fill="black"/>
<path d="M259.862 82.219C259.862 82.219 259.958 82.5378 260.129 83.129C261.604 88.2178 268.678 114.178 269.373 147.858C269.506 154.233 269.565 160.8 269.565 167.564C269.565 174.942 269.496 182.5 269.362 190.11L267.759 190.22C267.861 184.192 267.93 178.193 267.957 172.293C268.033 172.397 268.131 172.481 268.242 172.536C268.354 172.592 268.476 172.618 268.598 172.612C268.81 172.603 269.01 172.503 269.155 172.335C269.301 172.167 269.379 171.944 269.373 171.713C269.232 169.142 268.755 166.605 267.957 164.179C267.957 158.626 267.882 153.167 267.77 147.95C267.408 132.29 265.728 116.698 262.752 101.369C261.62 95.5728 260.519 90.9361 259.696 87.7309C259.285 86.1371 258.943 84.9083 258.708 84.0795C258.643 83.8535 258.59 83.6622 258.542 83.4999C256.227 83.7955 253.932 84.2485 251.67 84.8562L251.735 84.2766C251.749 84.1356 251.732 83.9928 251.683 83.861C251.635 83.7291 251.558 83.6121 251.458 83.5205C251.358 83.4288 251.239 83.3652 251.111 83.3353C250.983 83.3055 250.85 83.3102 250.725 83.3492C253.434 82.5611 256.193 81.9896 258.98 81.6394H259.033C259.211 81.6222 259.389 81.6698 259.539 81.7748C259.689 81.8798 259.803 82.0362 259.862 82.219Z" fill="black"/>
<path d="M222.005 221.511C214.9 263.674 204.084 309.25 202.535 315.721C212.432 319.112 222.747 320.832 233.122 320.822C242.91 320.896 252.637 319.143 261.881 315.639C262.161 312.916 262.661 306.627 263.258 297.814C264.506 279.543 266.173 250.381 267.206 219.385L267.34 219.338L268.841 218.753C268.755 221.485 268.661 224.187 268.561 226.857L268.496 228.614C268.055 240.326 267.534 251.646 266.996 262.04C266.275 276.094 265.511 288.474 264.871 297.943C264.231 307.412 263.699 313.964 263.424 316.395C263.405 316.557 263.344 316.711 263.249 316.838C263.154 316.965 263.029 317.061 262.887 317.115C253.327 320.808 243.249 322.657 233.106 322.579C227.986 322.571 222.874 322.156 217.81 321.337L216.196 321.068C211.118 320.224 206.117 318.901 201.25 317.115C201.063 317.037 200.909 316.887 200.817 316.694C200.725 316.501 200.701 316.278 200.749 316.067C200.749 316.067 200.852 315.651 201.04 314.855C202.46 308.917 208.855 281.839 214.895 251.113C216.852 241.158 218.767 230.839 220.467 220.72C220.999 220.996 221.505 221.259 222.005 221.511Z" fill="black"/>
<path d="M311.177 199.987C311.975 199.125 312.607 198.099 313.036 196.969C313.464 195.838 313.68 194.627 313.672 193.405C313.589 190.964 312.964 188.581 311.849 186.46C311.195 185.14 310.43 183.887 309.564 182.719C309.521 182.666 309.494 182.62 309.489 182.614C309.134 182.105 308.666 181.703 308.128 181.447C307.607 181.205 307.044 181.086 306.478 181.097C305.515 181.127 304.565 181.34 303.671 181.727C302.652 182.143 301.663 182.643 300.713 183.221C298.724 184.388 296.729 185.859 295.046 186.997C294.161 187.631 293.232 188.189 292.266 188.666C291.836 188.853 291.492 188.981 291.234 189.063H291.18C291.239 188.858 291.32 188.607 291.411 188.327C291.672 187.569 291.876 186.788 292.019 185.993C292.069 185.669 292.094 185.341 292.094 185.013C292.087 184.12 291.945 183.235 291.675 182.392C291.424 181.526 290.959 180.75 290.33 180.151C290.187 180.027 290.032 179.92 289.868 179.83C289.868 179.749 289.868 179.661 289.868 179.573C289.99 178.234 290.272 176.918 290.707 175.658C291.242 174.059 291.873 172.499 292.594 170.989C294.282 167.498 296.166 164.122 298.235 160.881C302.375 154.287 306.687 148.597 307.634 147.354L307.827 147.108C307.907 147.007 307.964 146.886 307.994 146.757C308.023 146.627 308.025 146.492 307.999 146.361L304.171 126.718L311.591 121.506C311.713 121.42 311.812 121.3 311.876 121.158C311.941 121.017 311.969 120.859 311.957 120.701L309.736 90.3544C311.629 92.0348 313.388 93.8855 314.995 95.8868L315.049 95.9393V95.9685L315.135 96.056L315.457 96.4004C315.737 96.7097 316.145 97.159 316.646 97.7368C317.651 98.904 319.033 100.556 320.528 102.575C323.523 106.619 326.98 112.093 328.819 117.748C328.878 117.924 328.987 118.075 329.13 118.18C329.273 118.285 329.442 118.338 329.615 118.332L329.663 119.726L331.201 160.21C330.988 160.222 330.788 160.325 330.645 160.497C330.502 160.669 330.427 160.895 330.438 161.126C331.513 183.303 331.884 209.757 331.884 234.594C331.884 273.444 331.024 308.29 330.809 316.39C330.809 316.915 330.809 317.324 330.776 317.621C330.54 317.732 330.239 317.89 329.792 318.071C328.477 318.649 327.134 319.154 325.77 319.582C321.23 321.032 316.523 321.775 311.79 321.788C302.583 321.815 293.585 318.802 285.991 313.151C285.663 304.812 285.507 295.9 285.507 286.604C285.507 262.093 286.55 234.968 288.045 208.689C291.75 207.691 296.401 206.436 302.144 204.878C306.467 203.693 309.365 202.007 311.177 199.987ZM302.294 268.308C303.232 268.594 304.194 268.78 305.166 268.863C306.241 268.973 307.354 269.014 308.494 269.014C311.592 268.979 314.685 268.753 317.759 268.337C317.865 268.322 317.967 268.285 318.059 268.227C318.152 268.169 318.233 268.092 318.298 268C318.363 267.909 318.411 267.804 318.439 267.692C318.467 267.58 318.474 267.463 318.46 267.348C318.447 267.233 318.412 267.122 318.359 267.022C318.306 266.921 318.235 266.833 318.15 266.762C318.065 266.692 317.969 266.64 317.866 266.61C317.762 266.579 317.655 266.572 317.549 266.587H317.345L316.764 266.662C316.258 266.727 315.538 266.808 314.683 266.89C312.968 267.059 310.693 267.223 308.489 267.223C307.413 267.223 306.3 267.182 305.311 267.083C304.445 267.007 303.588 266.843 302.751 266.592C302.648 266.553 302.539 266.536 302.43 266.543C302.321 266.551 302.214 266.582 302.116 266.636C302.019 266.69 301.932 266.764 301.862 266.855C301.792 266.946 301.739 267.052 301.708 267.166C301.677 267.279 301.667 267.399 301.679 267.517C301.692 267.635 301.726 267.749 301.781 267.852C301.835 267.955 301.908 268.045 301.995 268.116C302.083 268.188 302.183 268.239 302.289 268.267L302.294 268.308Z" fill="white"/>
<path d="M310.145 120.622L302.515 125.854C302.376 125.951 302.268 126.089 302.204 126.252C302.141 126.415 302.125 126.594 302.159 126.767L306.097 146.533C304.72 148.277 298.078 156.887 293.146 165.526C291.939 167.615 290.84 169.774 289.855 171.99C293.146 127.691 296.959 91.6528 297.748 84.38C297.748 84.2463 297.748 84.1301 297.787 84.0138L298.434 84.2173C299.839 84.6852 301.207 85.2683 302.526 85.9613C304.371 86.9375 306.136 88.0751 307.803 89.3623L310.145 120.622Z" fill="white"/>
<path d="M320.248 322.485C317.319 323.073 314.349 323.37 311.372 323.374C301.904 323.396 292.659 320.205 284.896 314.236C284.794 314.16 284.711 314.059 284.651 313.941C284.591 313.823 284.558 313.691 284.553 313.556C284.211 305.104 284.058 296.065 284.058 286.631C284.058 268.634 284.617 249.162 285.497 229.696C285.497 229.116 285.55 228.535 285.581 227.955C285.861 221.807 286.177 215.664 286.519 209.563L288.101 209.122C286.683 235.246 285.629 262.259 285.629 286.631C285.629 295.879 285.782 304.744 286.103 313.04C293.538 318.655 302.346 321.651 311.361 321.632C316.001 321.618 320.615 320.88 325.066 319.437C326.403 319.011 327.719 318.509 329.009 317.934C329.425 317.754 329.741 317.597 329.973 317.487C329.973 317.191 329.973 316.784 330.005 316.262C330.216 308.204 331.059 273.539 331.059 234.892C331.059 210.184 330.716 183.85 329.641 161.807C329.631 161.577 329.704 161.352 329.844 161.181C329.985 161.01 330.181 160.907 330.39 160.895C330.597 160.884 330.8 160.964 330.954 161.118C331.108 161.271 331.201 161.485 331.212 161.714C331.881 175.543 332.266 191.043 332.466 206.764C332.466 207.345 332.466 207.926 332.466 208.506C332.566 217.336 332.609 226.213 332.609 234.892C332.609 279.089 331.507 318.067 331.507 318.073C331.502 318.231 331.459 318.384 331.382 318.517C331.305 318.649 331.197 318.757 331.07 318.828C328.088 320.323 324.962 321.437 321.75 322.149C321.308 322.265 320.786 322.381 320.248 322.485Z" fill="black"/>
<path d="M329.152 118.456C329.077 118.483 329 118.498 328.921 118.502C328.752 118.509 328.586 118.456 328.446 118.35C328.306 118.245 328.199 118.094 328.142 117.917C326.336 112.25 322.955 106.758 320.023 102.695C318.559 100.67 317.206 99.0011 316.221 97.842C315.732 97.2565 315.332 96.8116 315.058 96.5013L314.742 96.1559L314.658 96.068V96.0388L314.605 95.9861C313.032 93.9784 311.309 92.1218 309.456 90.436L309.329 88.6797C309.321 88.5643 309.292 88.452 309.245 88.3489C309.198 88.2459 309.133 88.1543 309.053 88.0793C308.974 88.0043 308.882 87.9473 308.783 87.9117C308.684 87.8761 308.58 87.8625 308.476 87.8717C308.373 87.881 308.272 87.9128 308.179 87.9655C308.086 88.0181 308.004 88.0906 307.936 88.1786C307.869 88.2667 307.818 88.3687 307.786 88.4788C307.754 88.5888 307.742 88.7048 307.75 88.8202V88.9841C306.15 87.6878 304.456 86.5422 302.685 85.5592C301.419 84.8613 300.105 84.2741 298.757 83.8029L298.136 83.5979C298.136 83.715 298.136 83.8321 298.099 83.9668C297.341 91.2908 293.671 127.583 290.522 172.194C290.101 173.195 289.727 174.173 289.417 175.121C288.894 176.626 288.554 178.201 288.406 179.805C288.406 179.846 288.406 179.881 288.406 179.916C291.776 130.153 295.998 88.9256 296.604 83.1003C296.651 82.6378 296.677 82.3919 296.677 82.3919C296.707 82.1588 296.819 81.9482 296.988 81.8065C297.075 81.7366 297.174 81.6867 297.279 81.6596C297.384 81.6325 297.493 81.6287 297.599 81.6484H297.662C299.651 82.1625 301.575 82.9492 303.39 83.9902C306.614 85.7909 309.595 88.0847 312.246 90.8048C313.299 91.8645 314.352 93.0354 315.405 94.3175L315.584 94.54L315.774 94.7683C315.953 94.9674 317.669 96.8116 319.896 99.7154C320.339 100.301 320.802 100.916 321.281 101.577C324.272 105.71 327.736 111.313 329.647 117.273C329.691 117.386 329.712 117.508 329.71 117.631C329.708 117.754 329.683 117.875 329.636 117.987C329.59 118.098 329.523 118.198 329.439 118.278C329.356 118.359 329.258 118.42 329.152 118.456Z" fill="black"/>
<path d="M285.746 184.294C286.23 183.428 286.798 182.619 287.441 181.88C287.797 181.451 288.227 181.099 288.708 180.843C288.88 180.76 289.067 180.714 289.256 180.709C289.484 180.711 289.704 180.8 289.876 180.959C290.131 181.194 290.338 181.482 290.485 181.805C290.85 182.633 291.037 183.537 291.033 184.451C291.034 184.678 291.015 184.904 290.978 185.127C290.886 185.661 290.756 186.188 290.589 186.701C290.43 187.202 290.265 187.663 290.145 188.1C290.053 188.387 290.003 188.688 289.997 188.992C289.99 189.249 290.051 189.503 290.172 189.726C290.323 189.988 290.559 190.181 290.836 190.268C290.989 190.317 291.148 190.34 291.307 190.338C291.628 190.329 291.945 190.272 292.251 190.169C292.662 190.043 293.067 189.893 293.463 189.72C294.239 189.359 294.99 188.94 295.712 188.467C296.534 187.937 297.439 187.301 298.383 186.678C300.225 185.367 302.153 184.198 304.152 183.18C305.151 182.655 306.238 182.346 307.35 182.271C307.699 182.262 308.046 182.329 308.37 182.469C308.664 182.607 308.92 182.824 309.111 183.099L309.215 183.239L309.374 183.448C309.5 183.617 309.664 183.851 309.856 184.13C310.343 184.846 310.792 185.589 311.2 186.357C312.155 188.164 313.048 190.513 313.043 192.816C313.054 193.811 312.875 194.799 312.518 195.719C312.161 196.64 311.632 197.474 310.964 198.173C309.418 199.869 306.78 201.448 302.534 202.579C291.521 205.494 284.435 207.371 280.316 208.449C280.316 208.233 280.316 208.018 280.278 207.796C280.11 204.699 279.743 201.618 279.181 198.575C278.845 196.654 278.26 194.792 277.442 193.043C277.256 192.679 277.046 192.33 276.812 192L276.938 191.953C280.602 190.527 283.706 187.828 285.746 184.294Z" fill="white"/>
<path d="M279.531 208.331C283.621 207.291 290.701 205.492 301.679 202.669C305.911 201.579 308.541 200.055 310.083 198.419C310.749 197.745 311.275 196.941 311.631 196.053C311.987 195.165 312.166 194.212 312.155 193.252C312.155 191.031 311.269 188.754 310.318 187.023C309.911 186.282 309.463 185.565 308.978 184.875C308.787 184.605 308.623 184.38 308.497 184.217L308.339 184.015L308.235 183.88C308.045 183.615 307.79 183.405 307.497 183.273C307.174 183.138 306.828 183.073 306.48 183.082C305.371 183.154 304.288 183.452 303.292 183.959C301.299 184.94 299.377 186.068 297.541 187.332C296.6 187.95 295.698 188.546 294.878 189.058C294.159 189.514 293.41 189.918 292.636 190.267C292.242 190.434 291.838 190.578 291.428 190.7C291.124 190.799 290.807 190.854 290.488 190.863C290.329 190.864 290.17 190.842 290.017 190.795C289.742 190.711 289.506 190.525 289.356 190.272C289.235 190.057 289.174 189.812 289.181 189.564C289.187 189.271 289.237 188.981 289.329 188.704C289.449 188.282 289.613 187.838 289.771 187.354C289.938 186.859 290.068 186.352 290.16 185.836C290.196 185.621 290.215 185.403 290.214 185.184C290.218 184.302 290.031 183.431 289.668 182.632C289.521 182.32 289.315 182.043 289.061 181.817C288.888 181.651 288.662 181.556 288.426 181.552C288.238 181.558 288.052 181.602 287.88 181.682C287.4 181.929 286.971 182.269 286.617 182.682C285.976 183.395 285.409 184.175 284.927 185.01C282.897 188.425 279.805 191.034 276.152 192.414L276.026 192.459C275.746 192.066 275.413 191.716 275.037 191.419C274.911 191.324 274.774 191.239 274.638 191.155C274.977 191.048 275.332 190.93 275.698 190.784C278.948 189.519 281.695 187.177 283.506 184.127C284.174 182.937 285.016 181.86 286.004 180.934C286.362 180.613 286.764 180.348 287.196 180.147C287.437 180.037 287.691 179.959 287.951 179.916C287.959 180.11 288.033 180.295 288.159 180.439C288.285 180.583 288.456 180.678 288.642 180.707C288.828 180.737 289.019 180.698 289.181 180.599C289.343 180.5 289.467 180.346 289.531 180.164H289.564C289.73 180.25 289.888 180.354 290.034 180.473C290.673 181.05 291.146 181.797 291.401 182.632C291.676 183.444 291.82 184.296 291.827 185.156C291.827 185.473 291.801 185.789 291.751 186.101C291.605 186.866 291.398 187.619 291.133 188.35C291.04 188.619 290.958 188.861 290.898 189.058H290.952C291.215 188.979 291.565 188.856 292.002 188.676C292.984 188.217 293.929 187.679 294.829 187.068C296.54 185.971 298.568 184.571 300.591 183.43C301.557 182.873 302.562 182.392 303.598 181.991C304.508 181.618 305.474 181.413 306.452 181.384C307.029 181.373 307.601 181.488 308.131 181.721C308.678 181.968 309.154 182.355 309.514 182.845C309.514 182.845 309.547 182.896 309.591 182.947C310.471 184.072 311.249 185.279 311.914 186.55C313.048 188.594 313.684 190.89 313.768 193.241C313.776 194.418 313.556 195.586 313.121 196.675C312.685 197.764 312.043 198.752 311.231 199.583C309.388 201.528 306.469 203.153 302.046 204.294C296.207 205.795 291.477 207.004 287.71 207.965L286.07 208.393L279.618 210.034C279.597 209.54 279.569 208.966 279.531 208.331Z" fill="black"/>
<path d="M236.906 154.042C236.705 154.005 236.498 154.052 236.328 154.173C236.159 154.294 236.038 154.48 235.992 154.693C235.992 154.728 233.766 164.854 233.766 174.49C233.744 176.832 233.909 179.173 234.261 181.485C234.547 183.546 235.162 185.54 236.078 187.378C236.745 188.576 237.689 189.57 238.819 190.261C240.071 191.029 241.42 191.598 242.824 191.951C246.177 192.739 249.606 193.097 253.038 193.018C256.752 193.018 260.563 192.753 263.988 192.482C267.412 192.211 270.401 191.951 272.422 191.951C273.101 191.93 273.78 191.986 274.449 192.118C274.9 192.272 275.294 192.577 275.572 192.989C276.024 193.623 276.386 194.324 276.647 195.071C277.356 197.134 277.852 199.275 278.126 201.454C278.609 204.858 278.896 208.289 278.986 211.73L278.534 211.967C277.943 212.272 277.072 212.711 275.965 213.235C273.75 214.291 270.589 215.698 266.826 217.105C259.257 219.913 249.21 222.716 239.341 222.716C232.659 222.716 226.074 221.436 220.37 218.056C214.667 214.677 209.813 209.21 206.539 200.676C204.362 194.984 202.905 187.926 202.416 179.23C202.255 176.289 202.174 173.433 202.174 170.661C202.174 137.982 213.162 117.257 224.295 104.565C234.47 92.9737 244.802 88.124 246.974 87.1841L236.906 154.042Z" fill="white"/>
<path d="M248.283 85.3542C248.319 85.4623 248.335 85.5769 248.33 85.6916C248.325 85.8063 248.299 85.9187 248.253 86.0224C248.207 86.1262 248.143 86.2192 248.064 86.2961C247.985 86.3731 247.893 86.4325 247.792 86.4709L247.673 86.5232L247.398 86.6337C245.238 87.5818 234.837 92.4498 224.615 104.163C213.431 116.959 202.399 137.867 202.393 170.827C202.393 173.626 202.474 176.507 202.636 179.469C203.128 188.24 204.591 195.359 206.778 201.099C210.067 209.707 214.943 215.215 220.673 218.629C226.402 222.043 233.017 223.328 239.73 223.328C249.644 223.328 259.71 220.501 267.341 217.669C271.121 216.25 274.317 214.831 276.521 213.766C277.633 213.237 278.508 212.795 279.102 212.487L279.556 212.248C279.482 208.777 279.209 205.314 278.74 201.878C278.465 199.68 277.967 197.521 277.255 195.44C276.993 194.687 276.629 193.979 276.175 193.341C275.896 192.925 275.5 192.617 275.046 192.462C274.375 192.329 273.693 192.273 273.011 192.294C270.98 192.294 267.962 192.561 264.538 192.829C261.114 193.096 257.269 193.37 253.538 193.37C250.09 193.45 246.646 193.088 243.278 192.294C241.867 191.937 240.512 191.363 239.254 190.59C238.119 189.892 237.171 188.89 236.5 187.681C235.567 185.836 234.935 183.831 234.632 181.755C234.279 179.425 234.113 177.067 234.135 174.706C234.135 164.987 236.365 154.774 236.371 154.739C236.417 154.525 236.538 154.337 236.709 154.215C236.88 154.093 237.087 154.045 237.289 154.082H237.348C237.556 154.136 237.736 154.276 237.848 154.473C237.961 154.669 237.996 154.905 237.948 155.129V155.24C237.71 156.362 235.788 165.848 235.788 174.7C235.77 176.961 235.929 179.22 236.263 181.453C236.515 183.33 237.063 185.147 237.883 186.827C238.406 187.775 239.15 188.559 240.043 189.101C241.845 190.147 243.811 190.824 245.843 191.096C248.386 191.486 250.953 191.667 253.522 191.636C257.183 191.636 260.99 191.369 264.408 191.101L268.453 190.781L270.073 190.671C271.153 190.607 272.147 190.56 272.994 190.56C273.808 190.536 274.621 190.611 275.419 190.781C275.688 190.858 275.947 190.969 276.191 191.113C276.326 191.2 276.461 191.287 276.586 191.386C276.957 191.693 277.286 192.055 277.563 192.462C277.793 192.792 278.001 193.14 278.184 193.503C278.989 195.249 279.565 197.106 279.896 199.023C280.45 202.06 280.81 205.134 280.976 208.224C280.976 208.445 281.003 208.66 281.014 208.875C281.051 209.532 281.078 210.126 281.1 210.649C281.154 211.958 281.159 212.778 281.159 212.789C281.16 212.95 281.119 213.107 281.042 213.245C280.965 213.382 280.854 213.494 280.722 213.569C277.02 215.532 273.216 217.262 269.328 218.751L267.821 219.332L267.686 219.379C259.996 222.235 249.817 225.084 239.681 225.09C235.097 225.146 230.531 224.456 226.138 223.043C224.833 222.606 223.553 222.087 222.304 221.49C221.796 221.24 221.288 220.978 220.791 220.705C216.125 218.155 212.133 214.375 209.187 209.718C204.71 202.739 201.718 192.968 200.973 179.591C200.807 176.59 200.725 173.682 200.725 170.867C200.725 153.914 203.614 140.042 207.966 128.788C213.164 115.131 221.613 103.191 232.461 94.1713C235.245 91.8609 238.183 89.7751 241.253 87.9307C243.08 86.8184 244.972 85.8335 246.917 84.982L247.225 84.8599H247.252C247.45 84.7815 247.668 84.7893 247.861 84.8816C248.054 84.9739 248.205 85.1435 248.283 85.3542Z" fill="black"/>
<path d="M120.359 260.774C119.923 261.273 119.404 261.669 118.832 261.938C118.26 262.208 117.648 262.346 117.029 262.345C115.78 262.345 114.582 261.78 113.698 260.774C112.815 259.769 112.319 258.405 112.319 256.983V218.753H121.739V256.983C121.74 257.687 121.619 258.385 121.382 259.035C121.145 259.686 120.798 260.277 120.359 260.774Z" fill="white"/>
<path d="M112.319 207.657H121.739V212.412H112.319V207.657Z" fill="white"/>
<path d="M117.029 263.93C115.203 263.93 113.452 263.183 112.161 261.852C110.87 260.522 110.145 258.718 110.145 256.837V218.753H111.845V256.837C111.845 258.254 112.391 259.612 113.363 260.614C114.335 261.616 115.654 262.179 117.029 262.179C118.404 262.179 119.723 261.616 120.695 260.614C121.667 259.612 122.213 258.254 122.213 256.837V218.753H123.913V256.837C123.913 258.718 123.188 260.522 121.897 261.852C120.606 263.183 118.855 263.93 117.029 263.93Z" fill="black"/>
<path d="M121.739 207.657H123.913V212.412H121.739V207.657Z" fill="black"/>
<path d="M110.145 207.657H112.319V212.412H110.145V207.657Z" fill="black"/>
<path d="M108.696 196.56H124.638V206.071H108.696V196.56Z" fill="#1F6E8C"/>
<path d="M121.11 207.657H106.642C106.418 207.657 106.203 207.564 106.045 207.399C105.886 207.234 105.797 207.011 105.797 206.778V195.061C105.798 194.829 105.888 194.606 106.045 194.44C106.203 194.276 106.418 194.183 106.642 194.183H125.242C125.467 194.183 125.684 194.275 125.845 194.44C125.999 194.608 126.085 194.83 126.087 195.061V206.778C126.085 207.009 125.999 207.231 125.845 207.399C125.684 207.564 125.467 207.657 125.242 207.657H121.088H121.11ZM124.407 195.94H107.499V205.899H124.407V195.94Z" fill="black"/>
<path d="M85.5711 260.774C85.1353 261.273 84.6168 261.669 84.0457 261.939C83.4745 262.208 82.8622 262.346 82.2439 262.345C81.625 262.345 81.0121 262.207 80.4404 261.938C79.8686 261.669 79.3491 261.274 78.9117 260.776C78.4744 260.278 78.1278 259.686 77.8917 259.035C77.6557 258.384 77.5349 257.687 77.5363 256.983V218.753H86.9565V256.983C86.957 257.688 86.8348 258.385 86.597 259.036C86.3592 259.687 86.0105 260.278 85.5711 260.774Z" fill="white"/>
<path d="M77.5363 207.657H86.9565V212.412H77.5363V207.657Z" fill="white"/>
<path d="M81.884 263.93C80.9318 263.93 79.9891 263.746 79.1095 263.39C78.2299 263.033 77.4309 262.511 76.7579 261.852C76.0849 261.193 75.5513 260.411 75.1875 259.551C74.8236 258.691 74.6368 257.768 74.6376 256.837V218.753H76.4283V256.837C76.4268 257.539 76.5668 258.233 76.8403 258.882C77.1138 259.53 77.5155 260.119 78.0224 260.616C78.5292 261.112 79.1312 261.505 79.7939 261.773C80.4565 262.042 81.1668 262.179 81.884 262.179C83.3314 262.177 84.7191 261.614 85.7421 260.612C86.7651 259.611 87.3397 258.253 87.3397 256.837V218.753H89.1304V256.837C89.1304 258.717 88.3671 260.52 87.0083 261.85C85.6496 263.18 83.8064 263.928 81.884 263.93Z" fill="black"/>
<path d="M86.9565 207.657H89.1304V212.412H86.9565V207.657Z" fill="black"/>
<path d="M74.6376 207.657H77.5361V212.412H74.6376V207.657Z" fill="black"/>
<path d="M73.1883 196.56H90.5796V206.071H73.1883V196.56Z" fill="#1F6E8C"/>
<path d="M86.7042 207.657H73.2489C73.0407 207.657 72.841 207.564 72.6938 207.399C72.5466 207.234 72.4639 207.011 72.4639 206.778V195.061C72.4639 194.828 72.5466 194.605 72.6938 194.44C72.841 194.275 73.0407 194.183 73.2489 194.183H90.5194C90.7276 194.183 90.9273 194.275 91.0745 194.44C91.2217 194.605 91.3044 194.828 91.3044 195.061V206.778C91.3044 207.011 91.2217 207.234 91.0745 207.399C90.9273 207.564 90.7276 207.657 90.5194 207.657H86.6571H86.7042ZM89.7815 195.94H74.081V205.899H89.7815V195.94Z" fill="black"/>
<path d="M42.7535 207.657H52.1738V212.412H42.7535V207.657Z" fill="white"/>
<path d="M50.7935 260.774C50.3565 261.273 49.8372 261.669 49.2652 261.938C48.6933 262.208 48.0802 262.346 47.4611 262.345C46.2121 262.343 45.0147 261.778 44.132 260.772C43.2493 259.767 42.7535 258.404 42.7535 256.983V218.753H52.1738V256.983C52.1741 257.687 52.0523 258.384 51.8155 259.035C51.5786 259.685 51.2313 260.277 50.7935 260.774Z" fill="white"/>
<path d="M47.4582 263.93C45.6329 263.927 43.8834 263.178 42.5938 261.848C41.3041 260.519 40.5798 258.716 40.5798 256.837V218.753H42.2809V256.837C42.2809 258.253 42.8268 259.611 43.7986 260.612C44.7704 261.614 46.0887 262.177 47.4638 262.179C48.1452 262.179 48.8199 262.042 49.4494 261.773C50.079 261.505 50.6508 261.112 51.1323 260.615C51.6138 260.119 51.9955 259.53 52.2554 258.882C52.5152 258.233 52.6482 257.539 52.6467 256.837V218.753H54.3479V256.837C54.3486 257.769 54.1709 258.691 53.8249 259.552C53.479 260.413 52.9715 261.195 52.3316 261.854C51.6917 262.513 50.9318 263.035 50.0956 263.392C49.2594 263.748 48.3631 263.931 47.4582 263.93Z" fill="black"/>
<path d="M40.5797 207.657H42.7537V212.412H40.5797V207.657Z" fill="black"/>
<path d="M52.174 207.657H54.3479V212.412H52.174V207.657Z" fill="black"/>
<path d="M39.8551 196.56H55.7971V206.071H39.8551V196.56Z" fill="#1F6E8C"/>
<path d="M53.1516 207.657H39.2198C39.0042 207.655 38.7978 207.563 38.6446 207.399C38.4918 207.234 38.4059 207.011 38.4057 206.778V195.061C38.4057 194.828 38.4915 194.605 38.6442 194.44C38.7968 194.275 39.0039 194.183 39.2198 194.183H57.1569C57.3728 194.183 57.5798 194.275 57.7325 194.44C57.8852 194.605 57.9709 194.828 57.9709 195.061V206.778C57.9709 207.011 57.8852 207.234 57.7325 207.399C57.5798 207.564 57.3728 207.657 57.1569 207.657H53.1516ZM56.3428 195.94H40.0339V205.899H56.3428V195.94Z" fill="black"/>
<path d="M32.6641 271.063H131.828H139.855V274.234H24.6376V271.063H32.6641Z" fill="black"/>
<path d="M24.2754 271.887H24.6377V274.234H23.9131V271.063C23.9131 271.282 23.9512 271.491 24.0192 271.646C24.0871 271.801 24.1793 271.887 24.2754 271.887Z" fill="black"/>
<path d="M33.1777 270.831C33.253 270.758 33.3127 270.67 33.3532 270.574C33.3938 270.478 33.4144 270.375 33.4139 270.271V269.478H130.354V270.271C130.354 270.375 130.374 270.478 130.414 270.575C130.454 270.671 130.514 270.759 130.588 270.833C130.663 270.906 130.752 270.965 130.85 271.004C130.948 271.044 131.053 271.064 131.159 271.063H32.6087C32.8222 271.063 33.0268 270.979 33.1777 270.831Z" fill="black"/>
<path d="M139.855 274.234V271.887H140.217C140.313 271.886 140.405 271.799 140.473 271.646C140.507 271.57 140.534 271.479 140.552 271.379C140.571 271.279 140.58 271.172 140.58 271.063V274.234H139.855Z" fill="black"/>
<path d="M132.639 217.907C132.639 217.677 132.553 217.456 132.401 217.293C132.249 217.131 132.043 217.039 131.828 217.039H32.6641C32.4492 217.039 32.2431 217.131 32.0912 217.293C31.9392 217.456 31.8539 217.677 31.8539 217.907V269.478H24.6376V213.997H139.855V269.478H132.639V217.907Z" fill="white"/>
<path d="M139.782 271.063H131.079C130.974 271.064 130.87 271.042 130.772 270.999C130.675 270.956 130.587 270.892 130.513 270.812C130.439 270.732 130.38 270.636 130.34 270.531C130.3 270.426 130.28 270.314 130.281 270.2V218.891H34.2119V270.2C34.2124 270.313 34.1919 270.426 34.1517 270.531C34.1115 270.635 34.0524 270.73 33.9778 270.81C33.8283 270.972 33.6255 271.063 33.4139 271.063H24.7109C24.4992 271.063 24.2963 270.972 24.1466 270.81C23.997 270.649 23.9129 270.429 23.9129 270.2V213.275C23.9143 213.047 23.9982 212.828 24.1469 212.665C24.2965 212.503 24.4993 212.412 24.7109 212.412H139.782C139.993 212.412 140.196 212.503 140.346 212.665C140.496 212.827 140.58 213.046 140.58 213.275V270.2C140.58 270.313 140.56 270.426 140.519 270.531C140.479 270.635 140.42 270.73 140.346 270.81C140.195 270.971 139.993 271.062 139.782 271.063ZM138.984 214.138H25.5088V269.337H32.616V218.028C32.616 217.799 32.7 217.58 32.8497 217.418C32.9993 217.256 33.2023 217.165 33.4139 217.165H131.079C131.29 217.165 131.493 217.256 131.643 217.418C131.792 217.58 131.877 217.799 131.877 218.028V269.337H138.984V214.138Z" fill="black"/>
<path d="M137.681 561.148H21.0145V286.915H137.681V561.148ZM80.0402 310.181C72.1835 310.186 64.5047 312.748 57.9746 317.542C51.4446 322.335 46.3564 329.145 43.3535 337.111C40.3505 345.078 39.5675 353.842 41.1035 362.296C42.6395 370.75 46.4256 378.515 51.983 384.608C57.5404 390.702 64.6197 394.851 72.3258 396.531C80.032 398.21 88.019 397.345 95.2771 394.045C102.535 390.745 108.739 385.157 113.103 377.989C117.468 370.821 119.797 362.394 119.797 353.773C119.796 348.047 118.766 342.376 116.767 337.086C114.768 331.796 111.84 326.99 108.148 322.942C104.456 318.894 100.073 315.683 95.2508 313.494C90.428 311.304 85.2595 310.178 80.0402 310.181Z" fill="white"/>
<path d="M21.1746 286.915V560.957H138.245V286.915H139.855V561.854C139.854 562.087 139.769 562.31 139.619 562.476C139.468 562.641 139.264 562.733 139.05 562.733H20.3699C20.1549 562.734 19.9486 562.641 19.7959 562.476C19.6493 562.308 19.5667 562.086 19.5651 561.854V286.915H21.1746Z" fill="black"/>
<path d="M0.724533 276.611H159.42V285.33H0.724533V276.611Z" fill="white"/>
<path d="M0.234695 274.472C0.385162 274.32 0.587982 274.235 0.799759 274.234H160.07C160.284 274.233 160.489 274.319 160.64 274.472C160.786 274.626 160.868 274.832 160.87 275.046V286.103C160.868 286.317 160.786 286.522 160.64 286.677C160.489 286.829 160.284 286.915 160.07 286.915H0.799759C0.587982 286.913 0.385162 286.828 0.234695 286.677C0.084671 286.524 0.000274658 286.318 7.62939e-05 286.103V275.046C0.00141907 274.831 0.0856628 274.625 0.234695 274.472ZM159.276 275.858H1.62079V285.29H159.276V275.858Z" fill="black"/>
<path d="M80.0459 397.084C72.2361 397.078 64.6032 394.54 58.1121 389.79C51.6211 385.04 46.5633 378.292 43.5783 370.398C40.5933 362.505 39.8149 353.82 41.3418 345.443C42.8686 337.066 46.632 329.372 52.1562 323.334C57.6805 317.296 64.7175 313.185 72.3776 311.52C80.0377 309.856 87.977 310.713 95.1918 313.983C102.407 317.253 108.573 322.79 112.911 329.893C117.25 336.996 119.565 345.346 119.565 353.888C119.564 359.563 118.54 365.181 116.554 370.423C114.567 375.665 111.655 380.428 107.986 384.439C104.316 388.45 99.9595 391.631 95.1656 393.801C90.3717 395.971 85.234 397.086 80.0459 397.084ZM80.0459 312.436C71.2745 312.439 62.7753 315.768 55.9964 321.856C49.2174 327.944 44.5781 336.415 42.8689 345.825C41.1598 355.235 42.4865 365.002 46.6229 373.462C50.7593 381.922 57.4497 388.552 65.554 392.221C73.6583 395.891 82.6753 396.374 91.0685 393.587C99.4618 390.801 106.712 384.917 111.584 376.94C116.456 368.962 118.649 359.383 117.788 349.836C116.927 340.288 113.066 331.363 106.863 324.579C103.345 320.723 99.1644 317.665 94.5623 315.581C89.9601 313.498 85.0268 312.429 80.0459 312.436Z" fill="black"/>
<path d="M134.058 121.265C126.054 121.265 119.565 114.345 119.565 105.81C119.565 97.274 126.054 90.3544 134.058 90.3544C142.062 90.3544 148.551 97.274 148.551 105.81C148.551 114.345 142.062 121.265 134.058 121.265Z" fill="white"/>
<path d="M153.559 107.071C151.102 107.071 148.668 107.599 146.398 108.628C144.127 109.656 142.064 111.163 140.326 113.063C138.588 114.964 137.209 117.22 136.269 119.703C135.328 122.186 134.844 124.848 134.844 127.536C134.844 127.765 134.761 127.984 134.613 128.146C134.465 128.307 134.265 128.398 134.055 128.398C133.952 128.4 133.849 128.378 133.753 128.334C133.657 128.291 133.571 128.227 133.498 128.145C133.35 127.984 133.267 127.765 133.267 127.536C133.267 122.108 131.296 116.903 127.787 113.065C124.278 109.228 119.519 107.071 114.557 107.071C114.346 107.072 114.144 106.981 113.994 106.818C113.851 106.654 113.77 106.436 113.768 106.209C113.768 106.095 113.787 105.983 113.827 105.878C113.866 105.773 113.924 105.678 113.998 105.597C114.071 105.517 114.158 105.454 114.254 105.411C114.35 105.367 114.453 105.346 114.557 105.346C119.519 105.343 124.277 103.186 127.786 99.3472C131.294 95.5088 133.265 90.3039 133.267 84.8763C133.268 84.6479 133.351 84.4291 133.498 84.2668C133.646 84.105 133.846 84.014 134.055 84.0138C134.264 84.014 134.465 84.105 134.613 84.2668C134.76 84.4291 134.843 84.6479 134.844 84.8763C134.845 90.3049 136.818 95.5106 140.327 99.3492C143.837 103.188 148.596 105.345 153.559 105.346C153.768 105.348 153.968 105.439 154.117 105.599C154.264 105.761 154.348 105.98 154.348 106.209C154.348 106.438 154.265 106.657 154.117 106.819C153.969 106.981 153.768 107.071 153.559 107.071ZM134.045 90.9713C133.099 94.598 131.325 97.9017 128.889 100.571C126.454 103.241 123.438 105.189 120.124 106.232C123.438 107.274 126.455 109.221 128.891 111.891C131.326 114.561 133.1 117.865 134.045 121.493C134.99 117.866 136.763 114.563 139.198 111.893C141.632 109.223 144.648 107.275 147.96 106.232C144.646 105.186 141.629 103.234 139.194 100.56C136.76 97.886 134.988 94.5783 134.045 90.9483V90.9713Z" fill="black"/>
<path d="M458.333 469.209C459.244 472.881 460.952 476.227 463.297 478.931C465.642 481.635 468.548 483.608 471.739 484.664C468.548 485.722 465.643 487.695 463.298 490.399C460.953 493.102 459.244 496.447 458.333 500.119C457.422 496.447 455.713 493.102 453.368 490.399C451.023 487.695 448.118 485.722 444.927 484.664C448.119 483.608 451.024 481.635 453.369 478.931C455.715 476.227 457.423 472.881 458.333 469.209Z" fill="white"/>
<path d="M458.072 463.126C458.227 462.961 458.437 462.868 458.655 462.868C458.871 462.87 459.078 462.962 459.232 463.126C459.385 463.29 459.471 463.513 459.472 463.746C459.471 466.486 459.973 469.198 460.949 471.729C461.926 474.26 463.357 476.558 465.161 478.493C466.965 480.428 469.107 481.962 471.464 483.005C473.82 484.049 476.345 484.583 478.893 484.576C479.11 484.576 479.318 484.669 479.471 484.833C479.623 484.999 479.709 485.221 479.71 485.454C479.71 485.687 479.624 485.91 479.471 486.075C479.318 486.239 479.11 486.332 478.893 486.332C476.348 486.332 473.828 486.871 471.476 487.918C469.125 488.965 466.989 490.5 465.189 492.435C463.389 494.37 461.962 496.667 460.989 499.194C460.015 501.722 459.514 504.432 459.515 507.167C459.515 507.4 459.429 507.624 459.276 507.788C459.123 507.953 458.915 508.045 458.698 508.045C458.48 508.045 458.271 507.953 458.116 507.788C457.967 507.621 457.883 507.399 457.882 507.167C457.88 501.642 455.838 496.343 452.203 492.436C448.568 488.529 443.638 486.333 438.498 486.332C438.282 486.33 438.074 486.238 437.921 486.074C437.768 485.91 437.681 485.687 437.681 485.454C437.681 485.221 437.767 484.998 437.92 484.833C438.074 484.668 438.281 484.576 438.498 484.576C441.043 484.577 443.564 484.038 445.915 482.992C448.267 481.946 450.404 480.411 452.204 478.477C454.004 476.543 455.432 474.246 456.406 471.719C457.38 469.191 457.882 466.482 457.882 463.746C457.87 463.521 457.938 463.299 458.072 463.126ZM458.666 500.987C459.645 497.297 461.482 493.935 464.004 491.217C466.525 488.5 469.648 486.517 473.078 485.454C469.647 484.392 466.524 482.409 464.002 479.692C461.481 476.974 459.644 473.612 458.666 469.921C457.687 473.612 455.85 476.974 453.329 479.692C450.808 482.409 447.684 484.392 444.253 485.454C447.684 486.517 450.807 488.5 453.328 491.217C455.849 493.935 457.686 497.297 458.666 500.987Z" fill="black"/>
<path d="M165.937 394.706C163.644 394.705 161.403 393.937 159.497 392.499C157.591 391.061 156.106 389.019 155.229 386.629C154.352 384.239 154.123 381.61 154.571 379.073C155.019 376.537 156.124 374.207 157.745 372.379C159.367 370.551 161.433 369.306 163.682 368.802C165.931 368.298 168.262 368.557 170.38 369.547C172.498 370.537 174.309 372.213 175.583 374.363C176.856 376.514 177.536 379.042 177.536 381.628C177.535 385.097 176.312 388.424 174.137 390.876C171.962 393.328 169.012 394.706 165.937 394.706ZM165.937 372.93C164.415 372.93 162.928 373.439 161.663 374.392C160.398 375.346 159.412 376.701 158.831 378.286C158.249 379.872 158.096 381.616 158.394 383.299C158.691 384.982 159.424 386.528 160.5 387.741C161.576 388.954 162.947 389.78 164.439 390.114C165.932 390.448 167.478 390.276 168.884 389.618C170.289 388.961 171.49 387.848 172.334 386.42C173.179 384.993 173.629 383.315 173.628 381.599C173.62 379.304 172.806 377.107 171.364 375.487C169.923 373.868 167.971 372.959 165.937 372.959V372.93Z" fill="#1F6E8C"/>
<path d="M250.477 82.4513C250.688 82.4766 250.882 82.5936 251.015 82.7765C251.148 82.9595 251.211 83.1934 251.188 83.4271L251.124 84.0184L248.72 108.105L257.562 119.187C257.65 119.298 257.711 119.431 257.741 119.574C257.771 119.718 257.768 119.867 257.733 120.009L253.304 137.697C255.981 141.609 258.478 145.669 260.784 149.861C262.826 153.535 264.629 157.365 266.18 161.322C266.646 162.548 267.061 163.765 267.424 164.971C268.222 167.447 268.699 170.035 268.84 172.659C268.846 172.894 268.768 173.122 268.623 173.293C268.478 173.465 268.278 173.566 268.066 173.575C267.854 173.58 267.649 173.493 267.494 173.333C267.339 173.173 267.247 172.952 267.237 172.718C267.152 169.578 266.169 165.823 264.7 161.996C262.515 156.248 259.288 150.34 256.606 145.876C255.27 143.646 254.068 141.777 253.202 140.471C252.769 139.814 252.417 139.288 252.176 138.945L251.904 138.549L251.808 138.413C251.731 138.304 251.678 138.176 251.654 138.041C251.63 137.905 251.635 137.765 251.669 137.632L256.087 119.98L247.304 108.968C247.229 108.876 247.173 108.767 247.139 108.649C247.105 108.53 247.094 108.406 247.106 108.282L249.478 84.4974L249.607 83.1964C249.622 83.0281 249.681 82.8681 249.775 82.7351C249.87 82.6021 249.997 82.5017 250.141 82.4454C250.252 82.4211 250.367 82.4232 250.477 82.4513Z" fill="black"/>
<path d="M312.316 120.928C312.328 121.086 312.3 121.245 312.235 121.387C312.17 121.529 312.071 121.649 311.947 121.735L304.46 126.955L308.323 146.629C308.349 146.76 308.347 146.896 308.317 147.025C308.287 147.155 308.23 147.276 308.149 147.378L307.954 147.623C306.999 148.868 302.648 154.567 298.47 161.172C296.383 164.418 294.482 167.799 292.779 171.296C292.051 172.808 291.415 174.37 290.874 175.972C290.436 177.234 290.151 178.553 290.028 179.894C290.022 179.976 290.003 180.057 289.974 180.134C289.91 180.323 289.788 180.483 289.627 180.586C289.466 180.689 289.277 180.729 289.092 180.699C288.907 180.669 288.737 180.57 288.612 180.42C288.487 180.27 288.414 180.078 288.406 179.876C288.406 179.841 288.406 179.806 288.406 179.765C288.559 178.164 288.909 176.591 289.448 175.089C289.768 174.142 290.153 173.166 290.587 172.167C291.561 169.938 292.648 167.768 293.842 165.667C298.725 156.981 305.29 148.33 306.652 146.571L302.756 126.698C302.723 126.524 302.739 126.344 302.802 126.18C302.864 126.017 302.972 125.877 303.109 125.78L310.656 120.519L308.334 89.0901V88.9264C308.325 88.8113 308.338 88.6954 308.371 88.5855C308.404 88.4756 308.457 88.3738 308.526 88.2859C308.596 88.198 308.681 88.1256 308.776 88.0731C308.872 88.0205 308.976 87.9887 309.083 87.9795C309.189 87.9703 309.297 87.9838 309.399 88.0194C309.501 88.0549 309.595 88.1118 309.677 88.1867C309.759 88.2616 309.826 88.3531 309.875 88.4559C309.923 88.5588 309.953 88.671 309.962 88.7861L310.092 90.5397L312.316 120.928Z" fill="black"/>
<path d="M247.48 266.234H247.643H247.69C247.794 266.226 247.898 266.237 247.998 266.268C248.097 266.299 248.189 266.348 248.268 266.414C248.348 266.48 248.414 266.56 248.462 266.651C248.51 266.741 248.539 266.84 248.548 266.942C248.557 267.044 248.545 267.146 248.514 267.244C248.483 267.341 248.432 267.431 248.365 267.509C248.298 267.588 248.216 267.652 248.124 267.699C248.032 267.746 247.931 267.775 247.827 267.784C247.827 267.784 246.523 267.892 244.534 267.892C241.426 267.909 238.324 267.629 235.271 267.056C231.804 266.364 228.269 265.15 225.634 262.924C225.555 262.856 225.491 262.774 225.445 262.682C225.398 262.589 225.371 262.489 225.364 262.387C225.357 262.284 225.371 262.181 225.405 262.084C225.438 261.986 225.491 261.896 225.56 261.819C225.629 261.742 225.713 261.678 225.807 261.633C225.901 261.587 226.003 261.561 226.108 261.554C226.213 261.547 226.317 261.561 226.417 261.594C226.516 261.627 226.607 261.679 226.686 261.747C228.99 263.688 232.288 264.845 235.629 265.517C238.576 266.069 241.571 266.339 244.571 266.322C245.539 266.322 246.333 266.296 246.88 266.271C247.096 266.26 247.333 266.245 247.48 266.234Z" fill="black"/>
<path d="M303.197 266.321C303.991 266.565 304.805 266.725 305.626 266.799C306.566 266.896 307.597 266.936 308.643 266.936C310.736 266.936 312.895 266.776 314.524 266.611C315.335 266.531 316.019 266.452 316.499 266.389L317.05 266.315H317.244C317.447 266.285 317.653 266.347 317.815 266.487C317.977 266.626 318.083 266.832 318.11 267.058C318.136 267.285 318.081 267.514 317.956 267.695C317.831 267.877 317.646 267.995 317.443 268.024C314.524 268.43 311.585 268.651 308.643 268.685C307.561 268.685 306.484 268.645 305.483 268.537C304.561 268.457 303.648 268.275 302.758 267.996C302.657 267.968 302.562 267.918 302.479 267.848C302.396 267.779 302.327 267.691 302.275 267.59C302.223 267.49 302.191 267.378 302.179 267.263C302.167 267.148 302.176 267.031 302.206 266.92C302.236 266.809 302.286 266.706 302.352 266.617C302.419 266.528 302.501 266.455 302.594 266.403C302.686 266.351 302.788 266.32 302.891 266.313C302.995 266.305 303.099 266.321 303.197 266.36V266.321Z" fill="black"/>
</svg>
